<svg xmlns="http://www.w3.org/2000/svg" width="100.301" height="129.967" viewBox="0 0 100.301 129.967">
  <g id="art" transform="translate(-0.674 -0.349)">
    <g id="shape-6" transform="translate(1)">
      <path id="Shape" d="M98.977,129.8a2.079,2.079,0,0,0-.387,0L.174,129.745l0-7.936a5.463,5.463,0,0,1,5.892-3.748c.8.044,1.614.01,2.421.009,1.507,0,1.511,0,1.511-1.492q.012-19.488.031-38.976A3.681,3.681,0,0,0,9.4,75.336a5.855,5.855,0,0,1-.959-2.709,28.369,28.369,0,0,1-.069-5.309,4.974,4.974,0,0,1,3.164-4.5c2.6-1.137,5.219-2.246,7.835-3.353a10.422,10.422,0,0,1,4.244-.828c2.081.028,4.162.009,6.242.016,0-1.161.394-1.476,1.783-1.447.614.013.781-.162.838-.78.327-3.568.72-7.131,1.081-10.7.17-1.677.305-3.357.487-5.034.057-.514-.109-.643-.609-.64-3.027.018-6.053.01-9.079,0-.879,0-1.428-.546-1.33-1.29a1.16,1.16,0,0,1,1.276-.989c.773-.009,1.547-.01,2.32-.014a3.639,3.639,0,0,1-1.048-2.8c.032-5.858.032-11.817.032-17.579q0-3.431,0-6.86A3.1,3.1,0,0,1,28.923,7.24q2.99,0,5.979,0H37.41c.083-1.281.183-2.56.377-3.83A1.085,1.085,0,0,1,39,2.388c1.45.01,2.9,0,4.349.008.882.007,1.345.445,1.282,1.324-.083,1.175-.211,2.347-.333,3.518l7.807.01-.447-3.532A1.32,1.32,0,0,1,52.883,2.4c1.52-.021,3.04-.013,4.56.005a1.122,1.122,0,0,1,1.17,1.039c.158,1.264.265,2.534.379,3.8h.077l7.37-.005,1.43-1.256C69.407,4.639,71,3.244,72.554,1.866A3.747,3.747,0,0,1,74.393.891a1.9,1.9,0,0,1,1.8.571,1.876,1.876,0,0,1,.33,1.844,5.756,5.756,0,0,1-1.238,2.052q-1.692,1.926-3.372,3.858l-1.1,1.257-.024,24.5a3.244,3.244,0,0,1-1.018,2.814c.723,0,1.447.007,2.17.015.907.01,1.419.426,1.424,1.144s-.532,1.148-1.418,1.148c-3,0-6,.005-9.007-.021-.522,0-.675.082-.615.654.49,4.6.943,9.208,1.4,13.814.072.708.158,1.418.181,2.129.014.442.186.6.606.545a2.656,2.656,0,0,1,.357,0c1.167,0,1.716.494,1.68,1.468h2.46c2.422-.03,4.845.007,7.267-.012a8.913,8.913,0,0,1,3.505.628c2.863,1.185,5.721,2.383,8.549,3.651a4.729,4.729,0,0,1,2.917,3.937,25.785,25.785,0,0,1-.012,5.785,5.888,5.888,0,0,1-1.007,2.793,3.377,3.377,0,0,0-.576,2.086q.017,10.881,0,21.762-.006,8.754-.009,17.506c0,1.265.026,1.287,1.316,1.292.872,0,1.746.044,2.616,0a5.458,5.458,0,0,1,5.886,3.753c0,2.484-.015,4.967.009,7.452,0,.416-.08.57-.5.487ZM69.33,9.568l1.287-1.476Q72.3,6.158,73.992,4.23a3.967,3.967,0,0,0,.893-1.437.3.3,0,0,0,.015-.2.318.318,0,0,0-.213-.012,2.065,2.065,0,0,0-.994.569C72.133,4.528,70.541,5.924,69,7.275L67.36,8.715l-.465.422c-.326.3-.653.6-.983.889-.705.631-1.414,1.257-2.124,1.885-3.118,2.758-6.343,5.61-9.229,8.69-.453.483-.908.993-1.353,1.516-.087.1-.175.2-.261.306-.435.526-.85,1.078-1.237,1.653-.038.055-.072.113-.109.169a2.543,2.543,0,0,1,.79.572,6.414,6.414,0,0,1,.778,1.027c.088-.068.176-.136.265-.2A53.678,53.678,0,0,0,62.6,17.13c1.558-1.735,3.13-3.51,4.653-5.227l2.058-2.319ZM64.483,36.943h2.746c.176,0,.358-.008.548-.015l.117-.005c1.077-.465,1.179-.673,1.181-1.953L69.1,12.414l-.554.624c-1.523,1.719-3.1,3.5-4.66,5.235a55.217,55.217,0,0,1-9.471,8.779c-.072.05-.143.1-.213.16-.107.083-.233.174-.369.263-.024.016-.039.031-.064.046a4.843,4.843,0,0,1-2.056,4.692,7.185,7.185,0,0,1-3.5,1.3,1.861,1.861,0,0,0-1.488.763,1.184,1.184,0,0,1-2.24-.124,8.338,8.338,0,0,1,.982-9.007,4.771,4.771,0,0,1,4.513-1.575c.1-.152.2-.294.3-.443.111-.166.221-.333.337-.494.173-.242.352-.476.534-.709.112-.144.221-.29.336-.431.206-.252.415-.5.625-.738.095-.109.188-.221.283-.328.3-.342.61-.675.913-1,2.942-3.139,6.2-6.019,9.345-8.8q.945-.834,1.885-1.672l-12.321,0-8.005-.008H34.9q-2.99,0-5.977,0a1.409,1.409,0,0,0-1.595,1.579v6.859c0,5.765,0,11.725-.032,17.589A1.823,1.823,0,0,0,28.353,36.9l5.577.01q6.544.012,13.09.02,8.731.009,17.463.009ZM40.159,57.2a1.555,1.555,0,0,1,1.295,1.465l13.588.008c.05-1.153.3-1.417,1.548-1.453.459-.013.5-.213.464-.571-.165-1.6-.319-3.211-.479-4.817q-.4-4-.8-8.006c-.108-1.087-.214-2.174-.3-3.262-.029-.359-.181-.484-.54-.484q-6.755.006-13.51-.011c-.324,0-.466.1-.5.436q-.425,4.431-.872,8.86c-.229,2.29-.459,4.581-.706,6.87-.1.921-.122.919.816.965Zm46.011,8.62c-2.066-.83-4.127-1.684-6.143-2.626a10.958,10.958,0,0,0-4.785-.988c-8.464.022-16.93,0-25.395,0q-12.793-.006-25.588-.01a7.575,7.575,0,0,0-2.967.332c-2.774,1.15-5.535,2.332-8.293,3.517a1.592,1.592,0,0,0-1.076,1.48c-.02,1.516-.078,3.036.017,4.546A3.273,3.273,0,0,0,15.254,75.1a3.112,3.112,0,0,0,2.985-3.183c.029-.547.017-1.1.084-1.641a1.743,1.743,0,1,1,3.477.192,9.558,9.558,0,0,0,.151,2.212,3.156,3.156,0,0,0,6.134.034,9.937,9.937,0,0,0,.169-2.307,1.736,1.736,0,1,1,3.467-.156c.08.638.064,1.287.115,1.929a3.08,3.08,0,0,0,3.122,2.933,3.172,3.172,0,0,0,3.175-3.022c.034-.547-.005-1.1.023-1.645a1.767,1.767,0,1,1,3.529-.132c.068.575.031,1.16.059,1.739a3.147,3.147,0,0,0,6.292-.028c.027-.579-.011-1.163.049-1.739a1.763,1.763,0,0,1,3.525,0c.061.609.017,1.226.052,1.836a3.145,3.145,0,0,0,6.282.027c.039-.643,0-1.295.082-1.931a1.768,1.768,0,0,1,1.818-1.652,1.8,1.8,0,0,1,1.688,1.794c.04.611-.014,1.228.035,1.837a3.163,3.163,0,0,0,3.17,2.925,3.084,3.084,0,0,0,3.124-2.932c.059-.738.049-1.487.165-2.215a1.683,1.683,0,0,1,1.718-1.406,1.706,1.706,0,0,1,1.676,1.57c.053.544.01,1.1.037,1.643a3.217,3.217,0,1,0,6.428-.038c.025-.547-.019-1.1.039-1.643a1.716,1.716,0,0,1,3.382-.177,12.974,12.974,0,0,1,.142,1.925,3.345,3.345,0,0,0,.656,2.08A3.058,3.058,0,0,0,85.4,75a3.306,3.306,0,0,0,2.377-3.089c.043-1.224-.039-2.454.033-3.675a2.221,2.221,0,0,0-1.636-2.414ZM16.618,89.094c0-2.692,1.358-4.074,4.039-4.08q7.611-.02,15.222.006c2.843.009,4.136,1.328,4.136,4.166q0,13.742-.011,27.484c0,1.407,0,1.413,1.391,1.414q10.811.009,21.622.013l21.331.01c1.725,0,1.724,0,1.725-1.682q.006-18,.015-36c0-1.633,0-1.633-1.641-1.712a.817.817,0,0,1-.193-.015c-1.013-.312-1.2.183-1.2,1.083.026,4.838.008,9.677,0,14.516,0,5.645,0,11.29-.016,16.935a3.464,3.464,0,0,1-3.423,3.791,10.768,10.768,0,0,1-1.258.054q-15.318,0-30.639-.02a11.6,11.6,0,0,1-1.832-.141,3.269,3.269,0,0,1-2.715-2.784,13.525,13.525,0,0,1-.112-1.833c0-10.064-.014-20.129.031-30.194,0-1.139-.2-1.931-1.388-2.275a2.384,2.384,0,0,1-.968-.627c-.573-.583-1.007-.5-1.637,0a6.543,6.543,0,0,1-8.394-.071.926.926,0,0,0-1.4-.039,6.529,6.529,0,0,1-8.548.014.916.916,0,0,0-1.406.015,6.478,6.478,0,0,1-4.377,1.558c-1.373.01-1.379-.023-1.38,1.406q-.01,18.242-.018,36.484c0,.29.013.58.028.87.01.2.073.428.258.49a3.939,3.939,0,0,0,2.377.036c.581-.171.353-.834.353-1.288q.024-13.791.024-27.581Zm19.725,7.394-6.734,6.689c2.063,0,4.083.007,6.1,0,.614,0,.716-.44.717-.933,0-1.126.024-2.252,0-3.378a9.12,9.12,0,0,0-.085-2.378ZM35.29,106.77q-6.978.033-13.955-.007c-.826,0-1.156.274-1.148,1.119q.043,4.546-.007,9.092c-.01.85.317,1.126,1.146,1.113,2.325-.037,4.652-.011,6.978-.007s4.652-.022,6.977.015c.823.013,1.165-.26,1.158-1.11q-.042-4.545,0-9.092c.008-.84-.325-1.128-1.152-1.123Zm-15.01-3.981c.4.681,1.109.3,1.68.395a5.158,5.158,0,0,0,.625,0c1.213.337,2.169-.379,3.13-1.375,2.619-2.713,5.324-5.343,7.995-8.007.753-.75,1.51-1.5,2.256-2.256A2.438,2.438,0,0,0,36.322,89c-.2-.7-1-.344-1.547-.391s-1.1.01-1.645-.019a1.7,1.7,0,0,0-1.367.578Q26.3,94.643,20.811,100.1a2.989,2.989,0,0,0-.531,2.69Zm.015-7.473L27.031,88.6c-2.091,0-4.113-.009-6.134,0-.629,0-.689.461-.689.945,0,1.318-.017,2.638,0,3.956A5.892,5.892,0,0,0,20.3,95.316ZM79.479,77.939a1.035,1.035,0,0,0,0-.193c-.036-.241.1-.568-.206-.687-.235-.091-.4.159-.579.283a6.578,6.578,0,0,1-8.333-.243.886.886,0,0,0-1.326,0,6.525,6.525,0,0,1-8.466.087c-.654-.521-1.017-.427-1.635.044a6.514,6.514,0,0,1-6.937.824c-.779-.336-1.363-1.228-2.117-1.267-.81-.041-1.366,1.014-2.219,1.244-.9.243-1.055.821-1.054,1.667q.03,15.192,0,30.384c0,.257,0,.515.012.773.013.329.167.6.5.607,1.044.031,2.045.189,2.972-.695,3.548-3.389,7.177-6.693,10.777-10.029.308-.285.6-.586.926-.853a1.754,1.754,0,1,1,2.437,2.522c-.306.332-.645.634-.976.942q-3.906,3.621-7.81,7.246c-.24.224-.612.377-.611.8a1.778,1.778,0,0,0,.961.1q11.148.012,22.3.013c1.347,0,1.363-.013,1.364-1.35q.014-10.546.011-21.094a1.422,1.422,0,0,0-.205-1.043c-.311.291-.572.526-.822.77q-4.436,4.332-8.868,8.663a4.909,4.909,0,0,1-.968.794,1.717,1.717,0,0,1-2.33-2.333,4.43,4.43,0,0,1,.806-.956c3-2.939,6.011-5.86,8.993-8.813,1.12-1.11,2.651-2,3.225-3.419C79.885,81.281,79.421,79.549,79.479,77.939Zm16.6,46.347c0-2.189-.4-2.6-2.586-2.6q-43.337-.022-86.673-.041c-3.127,0-3.265.143-3.262,3.279,0,1.437.005,1.442,1.472,1.444l44.791.022,44.112.021c2.342,0,2.145.214,2.146-2.126ZM65.56,86.586q-6.349,6.092-12.71,12.172a1.71,1.71,0,0,1-2.586.09,1.789,1.789,0,0,1,.173-2.657q6.337-6.1,12.712-12.17a1.744,1.744,0,0,1,2.045-.408,1.662,1.662,0,0,1,1,1.715A1.744,1.744,0,0,1,65.56,86.586ZM26.474,113.36c-.226.011-.452,0-.678,0-1.631,0-2.527-.607-2.549-1.731-.022-1.178.9-1.844,2.564-1.845a6.887,6.887,0,0,1,.774.025,1.777,1.777,0,1,1-.111,3.55Z" fill="#e8e8e8" stroke="#e8e8e8" stroke-width="1" fill-rule="evenodd"/>
    </g>
  </g>
</svg>
