<svg xmlns="http://www.w3.org/2000/svg" viewBox="0 0 54 54">
    <path fill="#D4B363" fill-rule="evenodd" d="M31.484 23.045c0-1.118.044-2.241.035-3.362-.002-.235-.015-.526-.147-.695-.698-.889-.41-1.719-.047-2.65.445-1.142.258-2.325-.3-3.416-.219-.426-.199-.738.033-1.176.842-1.594.611-3.297.187-4.922-.787-3.029-2.793-4.992-5.836-5.916l-.777-.236H7.686C5.209 1.276 3.217 2.533 1.9 4.746.805 6.587.676 8.585.814 10.637c.004.054.002.118.031.156.831 1.108.429 2.19.052 3.344-.333 1.015-.109 2.073.4 3.026.227.425.268.766-.048 1.168-.303.385-.452.858-.454 1.349-.004 1.148-.043 2.3.043 3.442 0 0-.384 3.203 5.645 3.203h21.346s3.655.013 3.655-3.28zm-2.942-2.115c-.032.425.002.855-.006 1.282-.026 1.208-.456 1.64-1.685 1.643-3.339.01-6.678.004-10.016.004h-.733c-3.474 0-6.949.002-10.423-.001-1.494-.001-1.895-.379-1.897-1.84-.005-2.367-.199-2.054 2.076-2.066 2.307-.013 4.615.006 6.922-.007.542-.003.968.123 1.383.513 1.188 1.117 2.821 1.099 4.022-.025.365-.342.734-.49 1.228-.488 2.714.013 5.429.023 8.143-.006.75-.009 1.04.273.986.991zM3.798 15.02c.004-1.117.815-1.909 2.035-1.937 1.083-.026 2.168.003 3.252-.012.423-.006.722.131.933.502.541.955 1.092 1.904 1.653 2.847.249.418.137.569-.339.562-.948-.013-1.897-.003-2.845-.003-.867-.002-1.735.011-2.601-.005-1.292-.024-2.092-.783-2.088-1.954zm10.006-1.947c1.568.011 3.138-.001 4.707.006.189.001.464-.083.471.279-.058.109-.117.228-.184.343-.747 1.297-1.501 2.59-2.24 3.89-.275.482-.509.487-.785.006-.757-1.322-1.519-2.64-2.289-3.955-.229-.391-.19-.573.32-.569zm6.844 3.346c.56-.943 1.109-1.894 1.651-2.847.209-.372.513-.506.934-.5 1.056.015 2.114-.011 3.17.009 1.285.025 2.105.795 2.111 1.944.007 1.185-.768 1.92-2.082 1.946-.894.018-1.788.004-2.683.004v.004c-.921 0-1.841-.01-2.763.003-.479.007-.584-.146-.338-.563zm5.768-6.303c-3.42.004-6.841.001-10.262.001-3.745.002-7.492.005-11.238-.001-1.055-.001-1.148-.109-1.134-1.164.042-3.207 2.293-5.415 5.749-5.464 4.423-.063 8.85-.059 13.274.001 2.887.039 4.933 1.598 5.577 4.049.579 2.205.3 2.576-1.966 2.578z"/>
</svg>
