<svg xmlns="http://www.w3.org/2000/svg" width="78.652" height="61.342">
    <path fill="#060606" fill-rule="evenodd" d="M.069 41.109c.693-1.844 2.07-2.565 4.009-2.516 2.209.056 4.42.014 6.63.012.679-.001.697-.031.477-.672-.578-1.677-1.159-3.352-1.732-5.03-.375-1.1-.107-1.705.988-2.146 2.082-.838 4.17-1.662 6.261-2.474.91-.355 1.532-.106 1.981.769 1.52 2.957 3.032 5.918 4.546 8.877.297.58.352.604.855.165 2.862-2.489 5.714-4.989 8.57-7.483 3.199-2.794 6.358-5.635 9.614-8.362 2.631-2.205 5.683-3.707 8.975-4.721.877-.27 1.716.116 1.954.883.198.635-.291 1.434-1.1 1.681-3.023.921-5.806 2.296-8.201 4.35-3.053 2.616-6.058 5.287-9.083 7.934-2.939 2.573-5.871 5.154-8.822 7.713-.994.861-2.165 1.291-3.507 1.288-6.249-.011-12.498-.005-18.747-.004-.71 0-.942.209-.917.771.013.279.13.419.418.41.114-.003.228.001.342.001 6.421.001 12.842.001 19.262.006 1.357 0 2.548-.45 3.555-1.325 3.262-2.837 6.505-5.697 9.758-8.544 2.197-1.923 4.362-3.885 6.612-5.746 2.113-1.749 5.286-.888 6.31 1.627.216.532.292 1.087.291 1.659-.004 3.847-.003 7.694-.001 11.539 0 .785.003.786.787.788.362.001.725-.018 1.086.002.429.025.623-.126.62-.579-.008-.96.041-1.921.059-2.881.104-5.575.802-11.073 2.007-16.518.517-2.34 1.309-4.611 1.721-6.969.54-3.083.124-6.04-1.377-8.827-.217-.402-.428-.306-.728-.176-2.139.924-4.384 1.421-6.709 1.452-2.782.036-5.437-.573-7.948-1.784-1.205-.581-2.316-1.307-3.39-2.089-.35-.254-.501-.181-.661.187-.279.64-.569 1.28-.915 1.886-.247.434-.135.695.196 1.019 2.137 2.098 4.269 4.202 6.372 6.333.962.975 1.754 2.085 2.291 3.355.323.762.089 1.523-.569 1.848-.711.351-1.493.115-1.888-.633-1.071-2.023-2.672-3.605-4.293-5.178-1.632-1.582-3.247-3.183-4.853-4.791-.686-.688-.747-1.197-.321-2.044.765-1.519 1.528-3.039 2.303-4.551C33.824.319 34.704.104 35.86.967c1.568 1.17 3.123 2.356 4.979 3.068 4.245 1.629 8.412 1.454 12.505-.517.409-.197.796-.459 1.286-.392.689.094 1.091.517 1.421 1.096 1.199 2.098 2.146 4.286 2.55 6.679v4.978c-.113.417-.222.837-.34 1.253-2.073 7.342-3.321 14.807-3.413 22.444-.018 1.376.003 2.752-.015 4.128-.014 1.144-.512 1.625-1.641 1.628-1.561.002-3.124.003-4.685-.001-1.427-.005-1.82-.399-1.82-1.829-.002-4.43-.005-8.859.004-13.289 0-.49-.126-.892-.541-1.174-.557-.379-1.172-.287-1.81.267-5.423 4.713-10.843 9.429-16.269 14.138-1.416 1.229-3.089 1.869-4.962 1.875-7.162.023-14.323.004-21.483.018-.704.002-1.219-.229-1.557-.835v-3.393zm17.3-2.504c.838 0 1.676-.008 2.514.004.401.005.521-.096.316-.489-1.117-2.144-2.223-4.294-3.319-6.449-.151-.297-.311-.374-.624-.249-1.149.459-2.301.904-3.455 1.345-.283.108-.383.247-.275.556.562 1.603 1.11 3.209 1.651 4.818.115.339.321.473.677.468.838-.015 1.676-.005 2.515-.004z"/>
</svg>
