<svg xmlns="http://www.w3.org/2000/svg" width="113.353" height="130.332" viewBox="0 0 113.353 130.332">
  <g id="speaker" transform="translate(-53.206 -265.486)">
    <path id="Shape" d="M111.924,120.926a2.291,2.291,0,0,0-.437,0H.135v-9.03A6.178,6.178,0,0,1,6.8,107.624c.911.05,1.826.011,2.74.009,1.7,0,1.708,0,1.708-1.7q0-22.175.013-44.35a4.2,4.2,0,0,0-.712-2.576,6.689,6.689,0,0,1-1.086-3.082,32.458,32.458,0,0,1-.081-6.041,5.659,5.659,0,0,1,3.578-5.12c2.944-1.3,5.9-2.558,8.863-3.819.061-.026.123-.043.185-.068h-.149c.048,0,.118-.008.189-.016a11.645,11.645,0,0,1,2.832-.744c1.914-.641,62.251-.32,63.991.185.171.041.344.084.513.136a4.228,4.228,0,0,0,.916.14l-.509,0c.128.046.258.081.385.133,3.24,1.349,6.475,2.709,9.673,4.15a5.376,5.376,0,0,1,3.3,4.478,29.487,29.487,0,0,1-.01,6.583A6.719,6.719,0,0,1,102,59.105a3.869,3.869,0,0,0-.65,2.375q.023,12.379.01,24.761,0,9.961,0,19.919c0,1.44.03,1.465,1.489,1.47.986,0,1.976.05,2.961-.006a6.174,6.174,0,0,1,6.662,4.267c0,2.826-.013,5.653.015,8.479C112.492,120.844,112.4,121.021,111.924,120.926ZM97.4,48.136c-2.339-.943-4.671-1.914-6.953-2.986a12.343,12.343,0,0,0-5.413-1.121c-9.578.03-19.156.015-28.732.015q-14.477,0-28.952,0a8.537,8.537,0,0,0-3.358.38c-3.136,1.31-6.259,2.655-9.38,4.006a1.815,1.815,0,0,0-1.217,1.685c-.021,1.723-.086,3.454.022,5.172a3.712,3.712,0,0,0,3.751,3.445,3.532,3.532,0,0,0,3.375-3.624c.033-.621.018-1.25.094-1.867a1.973,1.973,0,1,1,3.935.216,11.013,11.013,0,0,0,.171,2.518,3.567,3.567,0,0,0,6.941.036,11.328,11.328,0,0,0,.19-2.626,1.965,1.965,0,1,1,3.923-.179c.09.725.071,1.464.131,2.195a3.493,3.493,0,0,0,3.533,3.336A3.6,3.6,0,0,0,43.05,55.3c.038-.621,0-1.247.027-1.871A2.062,2.062,0,0,1,45,51.278a2.04,2.04,0,0,1,2.072,2c.077.653.034,1.319.068,1.979a3.56,3.56,0,0,0,7.119-.036c.03-.66-.013-1.325.053-1.979a2,2,0,0,1,3.99,0c.068.692.018,1.394.059,2.09a3.558,3.558,0,0,0,7.107.026c.043-.732,0-1.473.092-2.2a2,2,0,0,1,2.057-1.881,2.039,2.039,0,0,1,1.91,2.041c.046.695-.016,1.4.041,2.089a3.585,3.585,0,0,0,3.588,3.326A3.5,3.5,0,0,0,76.685,55.4c.068-.84.054-1.691.187-2.52a1.909,1.909,0,0,1,1.942-1.6,1.937,1.937,0,0,1,1.9,1.785c.059.619.01,1.247.041,1.87a3.642,3.642,0,1,0,7.274-.047c.027-.624-.022-1.252.041-1.869a1.94,1.94,0,0,1,3.827-.2A14.785,14.785,0,0,1,92.059,55a3.838,3.838,0,0,0,.743,2.367,3.446,3.446,0,0,0,3.728,1.208,3.757,3.757,0,0,0,2.687-3.514c.048-1.393-.047-2.792.036-4.182A2.529,2.529,0,0,0,97.4,48.136ZM18.718,74.658c0-3.063,1.533-4.637,4.567-4.646q8.612-.023,17.223,0c3.215.009,4.681,1.51,4.682,4.738q0,15.637,0,31.273c0,1.6,0,1.609,1.574,1.609q12.232.005,24.464,0H95.366c1.951,0,1.95,0,1.95-1.916l0-40.963c0-1.859,0-1.859-1.857-1.948a.889.889,0,0,1-.219-.018c-1.146-.354-1.363.21-1.356,1.234.031,5.505.013,11.011.013,16.516,0,6.425.011,12.848-.009,19.271a3.934,3.934,0,0,1-3.87,4.316,12.406,12.406,0,0,1-1.424.062q-17.333,0-34.666-.006a13.207,13.207,0,0,1-2.073-.16,3.712,3.712,0,0,1-3.073-3.167,15.382,15.382,0,0,1-.128-2.086c-.008-11.452-.027-22.9.019-34.356.006-1.3-.223-2.2-1.572-2.589a2.679,2.679,0,0,1-1.1-.712c-.648-.664-1.14-.569-1.852,0a7.371,7.371,0,0,1-9.5-.076,1.044,1.044,0,0,0-1.586-.043,7.357,7.357,0,0,1-9.671.02,1.032,1.032,0,0,0-1.59.018,7.315,7.315,0,0,1-4.952,1.775c-1.553.012-1.561-.026-1.561,1.6v41.514c0,.33.014.66.032.989.012.229.082.488.292.559a4.45,4.45,0,0,0,2.688.04c.658-.2.4-.949.4-1.466Q18.724,90.349,18.718,74.658Zm22.322,8.4-7.617,7.613c2.334,0,4.62.008,6.905,0,.695,0,.81-.5.81-1.061,0-1.282.026-2.564,0-3.843a10.466,10.466,0,0,0-.1-2.706Zm.118,12.978c.007-.956-.368-1.284-1.305-1.279q-7.895.042-15.789,0c-.934,0-1.306.311-1.3,1.274q.053,5.173,0,10.346c-.011.966.358,1.281,1.3,1.265,2.63-.042,5.263-.016,7.893-.012s5.264-.027,7.9.014c.932.014,1.319-.3,1.31-1.264Q41.109,101.21,41.158,96.038Zm-18.291-5.8c.452.776,1.256.339,1.9.449a5.841,5.841,0,0,0,.707,0c1.372.382,2.454-.435,3.541-1.568,2.962-3.088,6.02-6.082,9.041-9.114.852-.856,1.708-1.707,2.551-2.569a2.79,2.79,0,0,0,.4-2.9c-.225-.8-1.138-.391-1.752-.445s-1.242.012-1.86-.021a1.923,1.923,0,0,0-1.548.658q-6.182,6.234-12.385,12.446a3.416,3.416,0,0,0-.6,3.06Zm.013-8.5L30.5,74.094c-2.366,0-4.654-.008-6.941,0-.712,0-.779.526-.779,1.076,0,1.5-.018,3,0,4.5A6.72,6.72,0,0,0,22.881,81.735ZM89.6,60.93c-.265-.1-.45.18-.655.321a7.41,7.41,0,0,1-9.428-.272,1,1,0,0,0-1.5,0,7.348,7.348,0,0,1-9.578.1c-.74-.591-1.151-.485-1.85.052a7.333,7.333,0,0,1-7.847.939c-.883-.38-1.544-1.4-2.4-1.439-.916-.047-1.543,1.154-2.508,1.416-1.019.276-1.2.934-1.193,1.9q.042,17.285.019,34.571c0,.295,0,.587.013.882.014.372.189.679.569.69,1.182.033,2.315.213,3.362-.794,4.013-3.858,8.118-7.62,12.188-11.417.348-.326.682-.668,1.047-.972A1.99,1.99,0,1,1,72.6,89.783c-.345.378-.728.722-1.1,1.072Q67.077,94.978,62.66,99.1c-.27.255-.692.429-.692.912a2,2,0,0,0,1.088.117q12.614.008,25.228,0c1.524,0,1.543-.014,1.543-1.536q.008-12,0-24a1.636,1.636,0,0,0-.233-1.187c-.351.331-.646.6-.929.877q-5.015,4.931-10.028,9.864a5.6,5.6,0,0,1-1.1.9,1.8,1.8,0,0,1-2.311-.331,1.831,1.831,0,0,1-.326-2.322,5.069,5.069,0,0,1,.911-1.088c3.388-3.346,6.8-6.671,10.17-10.033,1.267-1.264,3-2.272,3.647-3.892.661-1.654.136-3.625.2-5.455a1.212,1.212,0,0,0,0-.22C89.791,61.436,89.944,61.066,89.6,60.93Zm19.047,53.728c0-2.491-.458-2.956-2.927-2.956q-49.034,0-98.065,0c-3.538,0-3.693.165-3.69,3.732,0,1.634.008,1.642,1.668,1.642H56.307q24.956,0,49.91,0C108.867,117.077,108.644,117.321,108.644,114.658ZM74.09,71.776q-7.183,6.936-14.373,13.857a1.929,1.929,0,0,1-2.927.1,2.044,2.044,0,0,1,.2-3.024q7.168-6.949,14.375-13.853a1.965,1.965,0,0,1,2.315-.467,1.893,1.893,0,0,1,1.136,1.95A1.988,1.988,0,0,1,74.09,71.776ZM29.881,102.263c-.253.013-.511,0-.766,0-1.847.007-2.859-.688-2.885-1.969-.027-1.339,1.019-2.1,2.9-2.1a7.927,7.927,0,0,1,.876.028,2.021,2.021,0,1,1-.125,4.039Z" transform="translate(53.571 274.369)" fill="#e8e8e8" stroke="#e8e8e8" stroke-width="1" fill-rule="evenodd"/>
    <g id="Page-1" transform="translate(95.247 266)">
      <g id="shape-5" transform="translate(0 0)">
        <path id="Shape-2" data-name="Shape" d="M33.652,51.457a2.937,2.937,0,0,1,3.24-2.4c1.2.074,2.412.015,3.619.013.949,0,1.9-.04,2.846,0,.413.016.563-.085.56-.5q-.016-3.181,0-6.363c0-.419-.124-.61-.586-.657A14.619,14.619,0,0,1,35.3,38.164a14.8,14.8,0,0,1-5.314-9.553,31.411,31.411,0,0,1-.141-4.762.93.93,0,0,1,.957-1,15.285,15.285,0,0,1,1.972.018.967.967,0,0,1,.906.928,1.008,1.008,0,0,1-.887.963c-.966.146-.937.146-.973,1.127a12.962,12.962,0,0,0,2.346,8.178,13.1,13.1,0,0,0,20.111,1.65,12.515,12.515,0,0,0,3.709-8.888c0-.311,0-.622,0-.933-.007-.991-.007-.991-1.006-1.134a1.015,1.015,0,0,1-.849-.937.917.917,0,0,1,.829-.935c.674-.044,1.353-.062,2.028-.044a.929.929,0,0,1,.974.926c.138,3.374-.02,6.708-1.7,9.761A14.9,14.9,0,0,1,46.558,41.54c-.491.063-.665.217-.661.7q.026,3.153,0,6.308c0,.407.15.563.549.542,1.789-.092,3.58.045,5.371-.052a13.381,13.381,0,0,1,2.029.075,2.833,2.833,0,0,1,2.367,2.713C56.241,52.173,33.554,51.923,33.652,51.457ZM53.1,51Q44.909,51,36.721,51a1.367,1.367,0,0,0-.692.135c-.406.226,18.141-.142,17.07-.141ZM45.717,35.99a9.451,9.451,0,0,1-10.175-8.545c-.2-2.72-.061-5.444-.083-8.166-.026-3.126-.045-6.253.011-9.378a9.31,9.31,0,0,1,4.773-8.3A9.459,9.459,0,0,1,52.21,3.833a9.716,9.716,0,0,1,2.147,6.2c.017,2.705,0,5.411,0,8.117h0c0,2.779.016,5.557,0,8.336A9.545,9.545,0,0,1,45.717,35.99Zm4-22.525c.493-.029.989-.008,1.483-.012,1.27-.011,1.162.152,1.181-1.184.007-.434-.164-.581-.584-.57-.7.018-1.392.023-2.087-.009a.993.993,0,1,1,.05-1.973c.476-.01.952,0,1.429,0,1.316-.017,1.3.14,1.065-1.209a7.273,7.273,0,0,0-3.99-5.394c-.358-.191-.5-.1-.491.3.011.511.019,1.024,0,1.535a.995.995,0,1,1-1.978,0c-.024-.548,0-1.1-.005-1.645,0-.947-.18-1.1-1.13-1.013-.441.039-.657.207-.636.686.031.656.023,1.316,0,1.973a1,1,0,0,1-.991,1.091c-.576,0-.954-.414-.979-1.1-.019-.511-.016-1.023,0-1.535.008-.408-.143-.483-.494-.3a7.449,7.449,0,0,0-4.1,6.044c-.047.394.1.575.516.564.695-.017,1.392-.013,2.087,0a1.025,1.025,0,0,1,1.118.963,1.01,1.01,0,0,1-1.081,1c-.493.027-.988.015-1.483.017-1.266,0-1.169-.184-1.168,1.234,0,.377.149.526.522.518.7-.012,1.392-.017,2.088.007.71.025,1.144.437,1.121,1.016a1.036,1.036,0,0,1-1.133.952c-.623.014-1.246,0-1.869,0-.721,0-.727.011-.732.741v.274c0,.714.021.736.745.738q3.352.006,6.7,0c2.107,0,4.213,0,6.319,0,1.24,0,1.228.012,1.169-1.244-.017-.376-.161-.52-.532-.513-.7.014-1.392.014-2.088,0-.68-.017-1.118-.4-1.119-.957a1.012,1.012,0,0,1,1.077-1.008Zm2.659,6.308c.061-.508-.2-.614-.649-.61-2.271.015-4.544.008-6.816.008v0q-3.436,0-6.872,0c-.223,0-.551-.069-.563.273a2.412,2.412,0,0,0,.114,1.483c.032.05.17.044.259.044.768.005,1.535,0,2.3.008a.952.952,0,0,1,1.026.974.914.914,0,0,1-.992.94c-.495.017-.99,0-1.485.01-1.419.017-1.235-.234-1.262,1.3-.007.424.181.536.564.527.7-.017,1.393-.011,2.089,0s1.091.36,1.085.958-.4.931-1.11.94c-.659.009-1.318,0-1.978,0-.623,0-.694.088-.623.707a7.484,7.484,0,0,0,14.9-.088c.034-.441-.092-.643-.568-.626-.732.024-1.466.02-2.2,0a.909.909,0,0,1-.96-.917.919.919,0,0,1,.963-.972c.511-.023,1.025,0,1.539-.008,1.365-.025,1.216.214,1.24-1.284.006-.4-.134-.56-.544-.548-.714.022-1.429.014-2.144,0a.982.982,0,0,1-1.053-.958c-.009-.575.378-.93,1.032-.947a10.033,10.033,0,0,0,1.646-.059c.332-.063.75.251.982-.092.2-.3.033-.716.077-1.076Z" transform="translate(-29.827 -0.363)" fill="#e8e8e8" stroke="#e8e8e8" stroke-width="1" fill-rule="evenodd"/>
      </g>
    </g>
  </g>
</svg>
