<svg xmlns="http://www.w3.org/2000/svg" width="108.485" height="130.319" viewBox="0 0 108.485 130.319">
  <g id="play" transform="translate(-0.408 -0.224)">
    <g id="shape-3" transform="translate(0.908 0.724)">
      <path id="Shape" d="M107.853,130.02a2.121,2.121,0,0,0-.418,0H.908V121.05a5.909,5.909,0,0,1,6.374-4.238c.872.05,1.748.011,2.623.009,1.63,0,1.634,0,1.634-1.686q0-22.018.012-44.035a4.273,4.273,0,0,0-.682-2.558,6.829,6.829,0,0,1-1.037-3.061,33.409,33.409,0,0,1-.078-6A5.614,5.614,0,0,1,13.177,54.4c2.817-1.286,5.647-2.54,8.479-3.792a10.856,10.856,0,0,1,4.593-.938c2.587.034,5.174-.007,7.761.015l14.282,0a22.967,22.967,0,0,1-7.747-3.923,24.792,24.792,0,0,1-8.868-13.228,31.388,31.388,0,0,1-.879-4.862V23.589c.079-.608.15-1.218.241-1.826A24.661,24.661,0,0,1,48.353,1.557a30.737,30.737,0,0,1,4.4-.833h3.924A1.408,1.408,0,0,0,56.9.779a22.063,22.063,0,0,1,8.432,2.482A24.54,24.54,0,0,1,77.817,19.01a30.449,30.449,0,0,1,.806,4.579v4.086c-.079.593-.152,1.187-.238,1.778A24.646,24.646,0,0,1,61.124,49.689l14.26,0c2.623-.037,5.245,0,7.867-.017a9.273,9.273,0,0,1,3.793.706c3.1,1.337,6.194,2.689,9.255,4.121a5.318,5.318,0,0,1,3.159,4.446,30.294,30.294,0,0,1-.01,6.536,6.831,6.831,0,0,1-1.088,3.154A3.943,3.943,0,0,0,97.739,71q.024,12.293.01,24.585,0,9.89,0,19.779c0,1.43.029,1.454,1.423,1.459.945,0,1.891.049,2.833-.006,3.112-.182,5.23,1.22,6.373,4.237,0,2.806-.013,5.613.014,8.419,0,.47-.087.645-.54.55ZM75.575,25.691c.085-11.614-8.812-21.339-20.009-21.748-11.145-.6-21.522,8.6-21.723,21.418-.181,11.472,8.5,21.78,20.59,22.008C65.516,47.578,75.48,38.411,75.575,25.691ZM93.958,57.747c-2.238-.936-4.469-1.9-6.653-2.964a11.447,11.447,0,0,0-5.177-1.114c-9.164.03-18.325.014-27.489.014q-13.848,0-27.7,0a7.9,7.9,0,0,0-3.212.377c-3,1.3-5.988,2.638-8.975,3.977a1.8,1.8,0,0,0-1.163,1.673c-.022,1.712-.082,3.43.021,5.136a3.607,3.607,0,0,0,3.59,3.421c1.812-.055,3.122-1.514,3.229-3.6.033-.619.017-1.242.09-1.854a1.943,1.943,0,0,1,1.988-1.951,1.979,1.979,0,0,1,1.776,2.165,11.312,11.312,0,0,0,.164,2.5,3.385,3.385,0,0,0,6.64.036,11.754,11.754,0,0,0,.182-2.606,1.955,1.955,0,0,1,1.738-2.091,1.924,1.924,0,0,1,2.014,1.912c.087.72.069,1.454.126,2.179a3.4,3.4,0,0,0,3.38,3.312,3.5,3.5,0,0,0,3.435-3.417c.037-.617-.005-1.24.025-1.858a2.018,2.018,0,0,1,1.836-2.132,1.982,1.982,0,0,1,1.983,1.982c.074.648.035,1.309.065,1.965a3.406,3.406,0,1,0,6.811-.036c.029-.655-.013-1.315.051-1.966a1.909,1.909,0,1,1,3.817,0c.066.687.017,1.384.057,2.075a3.4,3.4,0,0,0,6.8.026c.041-.726,0-1.462.089-2.181a1.943,1.943,0,0,1,1.966-1.867,1.992,1.992,0,0,1,1.828,2.025c.042.689-.015,1.388.039,2.076a3.485,3.485,0,0,0,3.432,3.3,3.4,3.4,0,0,0,3.379-3.313c.065-.835.052-1.679.178-2.5a1.846,1.846,0,0,1,1.859-1.591,1.883,1.883,0,0,1,1.815,1.774c.057.614.01,1.239.04,1.856.1,2.216,1.524,3.765,3.445,3.779,1.968.013,3.419-1.561,3.514-3.826.026-.618-.022-1.242.04-1.856a1.867,1.867,0,0,1,1.748-1.724,1.845,1.845,0,0,1,1.913,1.522,15.447,15.447,0,0,1,.155,2.174,3.9,3.9,0,0,0,.711,2.35,3.226,3.226,0,0,0,3.565,1.2A3.713,3.713,0,0,0,95.7,64.626c.044-1.383-.044-2.772.033-4.152a2.509,2.509,0,0,0-1.771-2.727ZM18.686,84.081c0-3.041,1.467-4.6,4.37-4.613q8.237-.022,16.476,0c3.077.008,4.478,1.5,4.478,4.7q0,15.524,0,31.05c0,1.59,0,1.6,1.508,1.6q11.7.005,23.4,0H92.012c1.87,0,1.867,0,1.867-1.9l0-40.671c0-1.846,0-1.846-1.777-1.935a.746.746,0,0,1-.209-.017c-1.1-.351-1.3.209-1.3,1.225.029,5.466.013,10.933.013,16.4,0,6.378.01,12.755-.009,19.132-.009,2.551-1.277,3.991-3.7,4.286a11.206,11.206,0,0,1-1.36.061q-16.584.005-33.165,0a11.983,11.983,0,0,1-1.984-.159,3.622,3.622,0,0,1-2.939-3.145,15.7,15.7,0,0,1-.122-2.07c-.009-11.37-.026-22.741.018-34.111,0-1.288-.212-2.181-1.5-2.571a2.547,2.547,0,0,1-1.049-.706c-.62-.658-1.09-.564-1.772,0a6.856,6.856,0,0,1-9.086-.076.976.976,0,0,0-1.517-.042,6.848,6.848,0,0,1-9.252.019c-.58-.47-.957-.5-1.521.017A6.834,6.834,0,0,1,16.9,72.313c-1.485.011-1.492-.025-1.492,1.59q0,20.609,0,41.218c0,.327.014.655.03.982.012.228.08.485.28.555a4.107,4.107,0,0,0,2.573.04c.629-.194.381-.943.383-1.457q.018-15.579.011-31.16ZM40.04,92.424c-2.4,2.492-4.788,4.968-7.286,7.56,2.234,0,4.42.007,6.607,0,.663,0,.776-.5.776-1.053,0-1.272.025-2.545,0-3.817a10.727,10.727,0,0,0-.092-2.686Zm.113,12.885c.009-.95-.352-1.274-1.247-1.27q-7.551.041-15.105,0c-.9,0-1.251.309-1.241,1.264q.049,5.137,0,10.272c-.009.96.345,1.272,1.242,1.256,2.517-.042,5.034-.014,7.552-.011s5.035-.026,7.552.014c.892.015,1.263-.295,1.254-1.255q-.049-5.135,0-10.271Zm-17.5-5.758c.434.77,1.2.336,1.82.446a5.487,5.487,0,0,0,.675,0c1.314.378,2.348-.43,3.388-1.555,2.833-3.067,5.76-6.041,8.65-9.051.814-.849,1.633-1.694,2.441-2.551a2.852,2.852,0,0,0,.385-2.88c-.215-.792-1.089-.388-1.677-.442s-1.187.013-1.78-.019a1.8,1.8,0,0,0-1.479.654Q29.162,90.342,23.23,96.513a3.491,3.491,0,0,0-.574,3.038Zm.013-8.442,7.288-7.588c-2.264,0-4.452-.007-6.639,0-.682,0-.746.521-.746,1.068,0,1.49-.017,2.98,0,4.469a6.9,6.9,0,0,0,.093,2.046ZM86.494,70.45c-.254-.1-.43.18-.626.32a6.891,6.891,0,0,1-9.019-.271.935.935,0,0,0-1.436,0,6.839,6.839,0,0,1-9.164.1c-.708-.588-1.1-.482-1.769.05a6.814,6.814,0,0,1-7.508.935c-.845-.378-1.477-1.387-2.294-1.43-.876-.046-1.476,1.147-2.4,1.406-.974.275-1.142.928-1.14,1.884q.041,17.163.017,34.326c0,.291,0,.584.014.875.014.37.18.675.544.685,1.13.034,2.214.212,3.216-.787,3.84-3.831,7.768-7.566,11.662-11.337.332-.321.651-.663,1-.963a1.819,1.819,0,0,1,2.727.014,2.005,2.005,0,0,1-.088,2.834c-.331.375-.7.717-1.056,1.063q-4.228,4.1-8.45,8.192c-.259.253-.661.425-.661.9a1.843,1.843,0,0,0,1.04.116q12.068.01,24.135,0c1.458,0,1.476-.015,1.476-1.525q.006-11.917,0-23.831a1.671,1.671,0,0,0-.223-1.179c-.337.329-.618.593-.89.87q-4.8,4.9-9.593,9.793a5.347,5.347,0,0,1-1.048.9,1.671,1.671,0,0,1-2.21-.328,1.867,1.867,0,0,1-.312-2.306,4.914,4.914,0,0,1,.871-1.079c3.24-3.324,6.5-6.624,9.728-9.962,1.213-1.256,2.87-2.257,3.49-3.865.632-1.642.129-3.6.19-5.417a1.137,1.137,0,0,0,0-.219c-.039-.272.108-.641-.223-.775ZM104.715,123.8c0-2.474-.437-2.936-2.8-2.936q-46.908,0-93.816,0c-3.385,0-3.533.164-3.53,3.707,0,1.623.007,1.631,1.6,1.631H54.646q23.874,0,47.747,0C104.929,126.2,104.715,126.44,104.715,123.8ZM71.66,81.22Q64.79,88.1,57.909,94.978a1.8,1.8,0,0,1-2.8.1,2.081,2.081,0,0,1,.186-3q6.856-6.9,13.752-13.756a1.836,1.836,0,0,1,2.214-.463A1.893,1.893,0,0,1,72.35,79.8a2.009,2.009,0,0,1-.69,1.422ZM29.367,111.49c-.245.014-.49,0-.735,0-1.764.006-2.734-.684-2.759-1.955-.025-1.328.974-2.083,2.775-2.085a7.556,7.556,0,0,1,.838.028,1.964,1.964,0,0,1,1.93,2.129A1.935,1.935,0,0,1,29.367,111.49ZM42.574,34.623a16.092,16.092,0,0,1-2.3-5.333c-.125-.554-.105-.578.447-.579H68.6c.7,0,.723.008.532.7C67.413,35.629,63.58,39.6,57.48,40.97a14.393,14.393,0,0,1-14.906-6.347ZM58.735,21.472a6.631,6.631,0,0,1-.091-7.129,2.341,2.341,0,0,1,4.149.1,5.966,5.966,0,0,1,.924,3.366,5.8,5.8,0,0,1-1.092,3.676,2.28,2.28,0,0,1-3.89-.011Zm-11.953,0a6.214,6.214,0,0,1-1.021-4.61,5.212,5.212,0,0,1,.991-2.586,2.284,2.284,0,0,1,3.945-.019,5.808,5.808,0,0,1,1.069,3.564A5.877,5.877,0,0,1,50.7,21.448a2.273,2.273,0,0,1-3.915.021Z" transform="translate(-0.908 -0.724)" fill="#e8e8e8" stroke="#e8e8e8" stroke-width="1" fill-rule="evenodd"/>
    </g>
  </g>
</svg>
