<svg xmlns="http://www.w3.org/2000/svg" width="114.382" height="130.267" viewBox="0 0 114.382 130.267">
  <g id="shopping" transform="translate(-0.382 -0.06)">
    <g id="shape-7" transform="translate(0.882 0.56)">
      <path id="Shape" d="M113.7,129.8a2.383,2.383,0,0,0-.443,0H.882v-9.026a6.24,6.24,0,0,1,6.725-4.266c.92.049,1.843.011,2.766.009,1.72,0,1.723,0,1.723-1.7q0-22.166.014-44.33a4.163,4.163,0,0,0-.719-2.576,6.666,6.666,0,0,1-1.1-3.08,32.165,32.165,0,0,1-.081-6.038,5.658,5.658,0,0,1,3.611-5.117c2.971-1.294,5.956-2.557,8.944-3.817a11.966,11.966,0,0,1,2.911-.8v-1.9c.792-2.112,2.363-2.938,4.576-2.882,2.52.064,5.043.016,7.564.013.776,0,.8-.035.544-.77-.658-1.922-1.321-3.842-1.976-5.766a1.671,1.671,0,0,1,1.127-2.46q3.563-1.44,7.145-2.837a1.587,1.587,0,0,1,2.26.881q2.6,5.085,5.187,10.176c.339.665.4.693.975.19q4.9-4.281,9.779-8.579c3.651-3.2,7.255-6.458,10.971-9.586a28.993,28.993,0,0,1,10.241-5.411,1.7,1.7,0,0,1,2.23,1.012,1.682,1.682,0,0,1-1.255,1.927,25.585,25.585,0,0,0-9.359,4.986c-3.483,3-6.911,6.06-10.364,9.095-3.354,2.948-6.7,5.908-10.067,8.841a5.887,5.887,0,0,1-4,1.477q-10.7-.019-21.393,0c-.81,0-1.074.24-1.045.882.014.321.147.481.476.471.13,0,.261,0,.392,0q10.989,0,21.979.005a6,6,0,0,0,4.057-1.518c3.722-3.252,7.422-6.531,11.134-9.795,2.507-2.2,4.976-4.453,7.545-6.587A4.6,4.6,0,0,1,81.6,32.8a4.952,4.952,0,0,1,.332,1.9q-.007,6.613,0,13.227c0,.9,0,.9.9.9.414,0,.827-.021,1.239,0,.49.028.711-.145.707-.663-.009-1.1.047-2.2.068-3.3a96.144,96.144,0,0,1,2.29-18.935c.589-2.681,1.494-5.285,1.965-7.988A15.3,15.3,0,0,0,87.528,7.826c-.247-.462-.489-.351-.83-.2a19.76,19.76,0,0,1-7.655,1.664,19.975,19.975,0,0,1-9.069-2.044A25.265,25.265,0,0,1,66.1,4.848c-.4-.292-.571-.208-.754.215a22.665,22.665,0,0,1-1.043,2.16.829.829,0,0,0,.223,1.169C66.968,10.8,69.4,13.208,71.8,15.651A12.3,12.3,0,0,1,74.415,19.5a1.566,1.566,0,1,1-2.8,1.393,24.426,24.426,0,0,0-4.9-5.936q-2.793-2.719-5.537-5.491a1.7,1.7,0,0,1-.366-2.343c.872-1.74,1.742-3.483,2.627-5.217C64.2.41,65.2.165,66.521,1.153A24.124,24.124,0,0,0,72.2,4.67a17.241,17.241,0,0,0,14.269-.593,2.532,2.532,0,0,1,1.469-.449,2.161,2.161,0,0,1,1.621,1.256,23.287,23.287,0,0,1,2.91,7.655v5.706c-.129.479-.253.959-.388,1.437a99.23,99.23,0,0,0-3.9,25.728c-.014,1.174-.008,2.35-.011,3.524a9.941,9.941,0,0,1,3.569.7c3.269,1.347,6.534,2.708,9.764,4.148a5.381,5.381,0,0,1,3.333,4.476,29.079,29.079,0,0,1-.012,6.579,6.662,6.662,0,0,1-1.147,3.176,3.828,3.828,0,0,0-.657,2.375q.026,12.375.011,24.75,0,9.954,0,19.91c0,1.439.031,1.464,1.5,1.469,1,0,1.994.049,2.988-.006a6.236,6.236,0,0,1,6.724,4.265c0,2.826-.015,5.65.014,8.475.005.474-.091.649-.568.555Zm-73.8-91.561q.961,2.755,1.884,5.522a.7.7,0,0,0,.772.536c.955-.016,1.912-.006,2.869,0s1.912-.009,2.87,0c.457.006.594-.11.361-.56q-1.911-3.688-3.787-7.393c-.172-.34-.355-.429-.713-.285-1.309.526-2.625,1.037-3.942,1.543-.322.124-.436.283-.313.637Zm38.368-4.911a1.577,1.577,0,0,0-2.065.306q-8.763,7.649-17.523,15.3l20.2,0q0-7.131,0-14.262a1.476,1.476,0,0,0-.617-1.345ZM99.038,57.048c-2.362-.943-4.714-1.913-7.018-2.983a12.563,12.563,0,0,0-5.463-1.122c-9.665.03-19.331.014-29,.015q-14.607,0-29.216,0a8.693,8.693,0,0,0-3.388.381c-3.166,1.309-6.318,2.655-9.467,4a1.812,1.812,0,0,0-1.227,1.684c-.022,1.724-.086,3.452.022,5.17a3.733,3.733,0,0,0,3.786,3.443,3.544,3.544,0,0,0,3.407-3.622c.033-.623.018-1.249.1-1.866a1.99,1.99,0,1,1,3.97.216,10.849,10.849,0,0,0,.173,2.515,3.608,3.608,0,0,0,7,.037,11.338,11.338,0,0,0,.192-2.624,1.982,1.982,0,1,1,3.959-.179c.091.726.072,1.464.132,2.194a3.512,3.512,0,0,0,3.566,3.335,3.614,3.614,0,0,0,3.623-3.44c.038-.622,0-1.247.027-1.87a2.017,2.017,0,1,1,4.029-.152c.078.652.036,1.32.069,1.977a3.593,3.593,0,0,0,7.184-.035c.03-.66-.014-1.324.054-1.979a2.014,2.014,0,0,1,4.026,0c.07.691.018,1.393.059,2.088a3.592,3.592,0,0,0,7.172.026c.045-.731,0-1.472.093-2.2a2.016,2.016,0,0,1,2.075-1.88,2.048,2.048,0,0,1,1.929,2.04c.045.694-.016,1.4.041,2.089a3.6,3.6,0,0,0,3.62,3.323,3.513,3.513,0,0,0,3.565-3.334c.067-.841.055-1.691.188-2.52a1.92,1.92,0,0,1,1.961-1.6A1.946,1.946,0,0,1,82.2,61.973c.059.618.01,1.246.041,1.869a3.674,3.674,0,1,0,7.341-.048c.027-.623-.023-1.251.042-1.869a1.96,1.96,0,0,1,3.862-.2,14.889,14.889,0,0,1,.164,2.188,3.793,3.793,0,0,0,.75,2.366,3.494,3.494,0,0,0,3.76,1.208,3.763,3.763,0,0,0,2.712-3.513c.048-1.392-.047-2.79.035-4.179A2.527,2.527,0,0,0,99.038,57.048Zm-79.4,26.51c0-3.062,1.548-4.635,4.61-4.643q8.69-.025,17.381,0c3.245.008,4.724,1.508,4.724,4.735q0,15.63,0,31.258c0,1.6,0,1.608,1.589,1.608q12.345,0,24.688,0H96.985c1.971,0,1.97,0,1.97-1.914q0-20.472,0-40.944c0-1.858,0-1.858-1.875-1.946a.921.921,0,0,1-.221-.018c-1.158-.353-1.375.21-1.37,1.234.032,5.5.015,11.006.015,16.509,0,6.42.011,12.841-.009,19.262-.008,2.566-1.347,4.016-3.906,4.313a12.318,12.318,0,0,1-1.436.062q-17.492,0-34.983,0a13.319,13.319,0,0,1-2.092-.161,3.725,3.725,0,0,1-3.1-3.165,15.1,15.1,0,0,1-.129-2.084c-.009-11.447-.027-22.894.019-34.341.005-1.295-.225-2.2-1.586-2.587a2.718,2.718,0,0,1-1.106-.712c-.654-.663-1.15-.568-1.869,0a7.493,7.493,0,0,1-9.584-.076,1.061,1.061,0,0,0-1.6-.044,7.478,7.478,0,0,1-9.76.021,1.048,1.048,0,0,0-1.6.017,7.418,7.418,0,0,1-5,1.774c-1.567.013-1.575-.026-1.575,1.6q0,20.748,0,41.5c0,.329.015.66.032.989.012.229.083.487.295.558a4.529,4.529,0,0,0,2.714.04c.662-.195.4-.949.4-1.466q.019-15.685.012-31.369Zm22.527,8.4-7.686,7.611c2.355,0,4.662.007,6.969,0,.7,0,.817-.5.818-1.06,0-1.281.027-2.562,0-3.842A10.326,10.326,0,0,0,42.162,91.957Zm.118,12.972c.009-.956-.372-1.283-1.316-1.278q-7.966.041-15.933,0c-.944-.006-1.32.312-1.309,1.274q.052,5.171,0,10.34c-.01.966.362,1.28,1.309,1.265,2.655-.043,5.311-.014,7.966-.012s5.312-.027,7.966.015c.942.015,1.331-.3,1.322-1.264q-.051-5.169,0-10.34Zm-18.457-5.8c.457.774,1.268.339,1.92.449a6.022,6.022,0,0,0,.713,0c1.385.382,2.476-.434,3.573-1.566,2.989-3.087,6.076-6.08,9.124-9.111.859-.854,1.724-1.7,2.576-2.568a2.766,2.766,0,0,0,.4-2.9c-.225-.8-1.148-.391-1.767-.445s-1.254.013-1.879-.02a1.947,1.947,0,0,0-1.561.658q-6.238,6.229-12.5,12.439a3.387,3.387,0,0,0-.606,3.059Zm.013-8.5c2.548-2.53,5.058-5.025,7.687-7.639-2.386,0-4.7-.006-7,.005-.718,0-.787.524-.787,1.075,0,1.5-.017,3,0,4.5A6.665,6.665,0,0,0,23.836,90.633Zm67.328-20.8c-.268-.1-.454.181-.662.322a7.534,7.534,0,0,1-9.514-.272,1.014,1.014,0,0,0-1.514,0,7.473,7.473,0,0,1-9.667.1c-.746-.591-1.16-.484-1.866.051a7.461,7.461,0,0,1-7.92.941c-.891-.382-1.557-1.4-2.419-1.439-.925-.047-1.557,1.154-2.532,1.417-1.028.276-1.205.933-1.2,1.9q.043,17.278.019,34.555c0,.294,0,.587.014.88.015.372.19.68.575.691,1.191.033,2.335.213,3.392-.793,4.05-3.857,8.192-7.616,12.3-11.412.35-.326.687-.668,1.056-.97a1.979,1.979,0,0,1,2.876.013,1.954,1.954,0,0,1-.092,2.853c-.349.378-.736.721-1.114,1.071q-4.458,4.122-8.914,8.246c-.273.254-.7.429-.7.91a2.026,2.026,0,0,0,1.1.117q12.731.008,25.46,0c1.537,0,1.556-.016,1.557-1.536q.007-11.995,0-23.991a1.613,1.613,0,0,0-.235-1.186c-.355.33-.653.6-.938.877Q85.165,88.117,80.1,93.046a5.587,5.587,0,0,1-1.105.9,1.955,1.955,0,0,1-2.66-2.652,5,5,0,0,1,.919-1.087c3.419-3.345,6.859-6.668,10.262-10.028,1.279-1.264,3.028-2.272,3.68-3.891.669-1.654.137-3.624.2-5.453a1.268,1.268,0,0,0,0-.221c-.042-.274.113-.644-.236-.781Zm19.221,53.7c0-2.491-.461-2.955-2.954-2.955q-49.482,0-98.964,0c-3.569,0-3.726.164-3.723,3.731,0,1.633.007,1.643,1.683,1.643H107.936c2.674,0,2.449.242,2.449-2.419ZM75.516,80.679Q68.268,87.61,61.01,94.529a1.958,1.958,0,0,1-2.953.1,2.03,2.03,0,0,1,.2-3.022q7.234-6.945,14.507-13.848A2,2,0,0,1,75.1,77.3a1.892,1.892,0,0,1,1.147,1.951A1.987,1.987,0,0,1,75.516,80.679ZM30.9,111.151c-.257.013-.516,0-.774,0-1.862.006-2.885-.688-2.911-1.968-.027-1.338,1.029-2.1,2.926-2.1a7.7,7.7,0,0,1,.884.027,2.021,2.021,0,1,1-.125,4.037Z" transform="translate(-0.882 -0.56)" stroke="#dbb354" stroke-width="1"/>
    </g>
  </g>
</svg>
