<svg xmlns="http://www.w3.org/2000/svg" width="117.354" height="130.319" viewBox="0 0 117.354 130.319">
  <g id="food" transform="translate(273.365 35.031)">
    <g id="shape-1" transform="translate(-272.865 -34.531)">
      <path id="Shape" d="M115.9,129.764a2.372,2.372,0,0,0-.452,0H.135v-9.351a6.4,6.4,0,0,1,6.9-4.42c.943.052,1.891.012,2.838.009,1.765,0,1.768,0,1.768-1.759q0-22.964.014-45.93a4.348,4.348,0,0,0-.737-2.668,6.928,6.928,0,0,1-1.125-3.192,33.614,33.614,0,0,1-.084-6.256,5.86,5.86,0,0,1,3.705-5.3c3.049-1.341,6.114-2.649,9.179-3.955.063-.026.128-.045.191-.07h-.154c.05,0,.122-.008.2-.016a12.06,12.06,0,0,1,2.932-.77c1.983-.664,4.12-1.612,4.07-2.3-.162-2.2-.089-4.426-.082-6.64a4.263,4.263,0,0,1,.858-2.6,1.842,1.842,0,0,0,.091-2.254,7.547,7.547,0,0,1-.758-5.837c.715-2.227,1.473-4.315-.1-6.45a.6.6,0,0,1-.059-.3c-.261-3.961-.017-7.815,2.054-11.366A16.63,16.63,0,0,1,42.78.469H74.827l1.468.456a15.372,15.372,0,0,1,11.04,11.413c.8,3.134,1.238,6.419-.356,9.494a2.183,2.183,0,0,0-.063,2.268,8.033,8.033,0,0,1,.569,6.59c-.685,1.8-1.232,3.4.089,5.113a2.381,2.381,0,0,1,.277,1.34c.016,2.162.117,4.337-.066,6.486-.083.972,2.442,2.118,4.244,2.641.177.043.356.088.531.14a4.378,4.378,0,0,0,.949.145l-.527,0c.132.047.267.084.4.138,3.355,1.4,6.705,2.806,10.018,4.3a5.567,5.567,0,0,1,3.421,4.638,30.537,30.537,0,0,1-.01,6.817,6.958,6.958,0,0,1-1.179,3.292,4.006,4.006,0,0,0-.674,2.459q.024,12.82.01,25.643,0,10.316,0,20.629c0,1.491.031,1.517,1.542,1.522,1.021,0,2.046.052,3.066-.006a6.394,6.394,0,0,1,6.9,4.419c0,2.927-.014,5.855.015,8.781C116.493,129.678,116.4,129.862,115.9,129.764ZM35.4,41.648c0,2.82.761,3.55,3.586,3.552q9.858.005,19.713,0h1.385c6.314,0,12.628.012,18.942-.007,2.325-.007,3.136-.839,3.186-3.17.018-.824-.047-1.652.014-2.473.1-1.385-.447-1.93-1.867-1.914-5.133.058-10.267.037-15.4.013a3.1,3.1,0,0,0-2.321.942,5.273,5.273,0,0,1-7.607.048,3.441,3.441,0,0,0-2.616-.991c-4.362.025-8.726-.01-13.09.015C35.021,37.688,35.387,37.082,35.4,41.648ZM78.23,31.912c2.486-.05,3.951-1.468,3.939-3.755-.012-2.216-1.562-3.7-3.994-3.75-2-.039-4,.013-5.993-.016a1.783,1.783,0,0,0-1.768.963q-1.535,2.762-3.12,5.494c-.466.8-.266,1.1.639,1.086,1.742-.025,3.484-.007,5.226-.007v-.008c1.691,0,3.383.028,5.072-.007ZM64.142,24.943c-.015-.7-.533-.537-.892-.538-2.967-.014-5.934.008-8.9-.014-.964-.007-1.039.347-.6,1.1q2.185,3.8,4.329,7.628c.522.929.965.919,1.484-.012,1.4-2.509,2.824-5,4.237-7.5.127-.222.238-.454.348-.662ZM50.317,30.85q-1.592-2.73-3.127-5.493a1.785,1.785,0,0,0-1.765-.968c-2.048.03-4.1-.026-6.148.023a3.669,3.669,0,0,0-3.85,3.736c-.007,2.261,1.506,3.726,3.948,3.77,1.64.031,3.279.007,4.92.01,1.794,0,3.588-.017,5.38.007.9.012,1.111-.279.642-1.085Zm31.6-17.136C80.7,8.986,76.832,5.978,71.372,5.9q-12.55-.173-25.1,0C39.732,6,35.477,10.257,35.4,16.444c-.026,2.034.15,2.242,2.145,2.244q10.626.017,21.254,0,9.7,0,19.4,0c4.285,0,4.815-.721,3.718-4.975Zm18.944,40.667c-2.422-.976-4.837-1.983-7.2-3.093a12.783,12.783,0,0,0-5.606-1.161c-9.919.031-19.838.015-29.756.015q-14.992,0-29.984,0a8.841,8.841,0,0,0-3.477.394c-3.248,1.356-6.482,2.749-9.714,4.148a1.879,1.879,0,0,0-1.261,1.745c-.022,1.785-.089,3.577.023,5.356a3.844,3.844,0,0,0,3.885,3.568,3.658,3.658,0,0,0,3.5-3.753c.035-.644.018-1.294.1-1.933a2.043,2.043,0,1,1,4.075.223,11.4,11.4,0,0,0,.177,2.608,3.694,3.694,0,0,0,7.188.037,11.731,11.731,0,0,0,.2-2.72,2.034,2.034,0,1,1,4.063-.185c.093.751.074,1.516.136,2.273a3.617,3.617,0,0,0,3.659,3.455A3.725,3.725,0,0,0,44.578,61.8c.039-.644,0-1.292.028-1.938a2.135,2.135,0,0,1,1.988-2.224A2.113,2.113,0,0,1,48.741,59.7c.079.676.036,1.366.07,2.049a3.687,3.687,0,0,0,7.372-.037c.031-.684-.014-1.372.055-2.049a2.066,2.066,0,0,1,4.132,0c.07.716.018,1.444.061,2.165a3.684,3.684,0,0,0,7.361.026c.045-.758,0-1.526.1-2.275a2.076,2.076,0,0,1,2.13-1.948A2.112,2.112,0,0,1,72,59.75c.047.72-.016,1.446.043,2.163a3.713,3.713,0,0,0,3.715,3.445A3.62,3.62,0,0,0,79.411,61.9c.07-.87.056-1.751.193-2.61a1.977,1.977,0,0,1,2.011-1.658,2.006,2.006,0,0,1,1.967,1.849c.061.641.01,1.292.043,1.937a3.772,3.772,0,1,0,7.533-.048c.028-.646-.023-1.3.043-1.935a2.009,2.009,0,0,1,3.963-.211,15.311,15.311,0,0,1,.168,2.267,3.975,3.975,0,0,0,.769,2.451,3.569,3.569,0,0,0,3.86,1.252,3.891,3.891,0,0,0,2.783-3.639c.05-1.443-.048-2.891.037-4.331a2.619,2.619,0,0,0-1.919-2.843ZM19.38,81.848c0-3.172,1.588-4.8,4.73-4.812q8.918-.024,17.837,0c3.33.009,4.847,1.564,4.848,4.907q0,16.194,0,32.386c0,1.659,0,1.666,1.63,1.666Q61.1,116,73.763,116H98.758c2.021,0,2.019,0,2.019-1.984l0-42.422c0-1.925,0-1.925-1.923-2.017a.921.921,0,0,1-.227-.018c-1.187-.366-1.412.218-1.4,1.278.032,5.7.014,11.4.014,17.1,0,6.654.012,13.305-.009,19.958a4.074,4.074,0,0,1-4.008,4.47,12.852,12.852,0,0,1-1.475.064q-17.951,0-35.9-.006a13.679,13.679,0,0,1-2.147-.166,3.844,3.844,0,0,1-3.182-3.28,15.93,15.93,0,0,1-.132-2.16c-.008-11.86-.028-23.719.02-35.579.006-1.344-.231-2.275-1.628-2.682a2.774,2.774,0,0,1-1.135-.737c-.671-.687-1.18-.589-1.918,0a7.634,7.634,0,0,1-9.835-.078,1.082,1.082,0,0,0-1.643-.045,7.619,7.619,0,0,1-10.016.021,1.069,1.069,0,0,0-1.646.018,7.575,7.575,0,0,1-5.128,1.839c-1.608.013-1.616-.026-1.616,1.657v42.993c0,.342.015.684.033,1.025.013.237.085.505.3.579a4.609,4.609,0,0,0,2.784.041c.682-.2.414-.983.414-1.519Q19.386,98.1,19.38,81.848ZM42.5,90.55l-7.888,7.884c2.417,0,4.785.008,7.151,0,.72,0,.839-.517.839-1.1,0-1.328.026-2.655,0-3.98a10.839,10.839,0,0,0-.1-2.8Zm.122,13.44c.007-.99-.381-1.33-1.352-1.324q-8.176.043-16.352,0c-.967,0-1.353.322-1.344,1.32q.055,5.357,0,10.714c-.012,1,.371,1.326,1.342,1.31,2.724-.044,5.451-.016,8.175-.013s5.452-.028,8.177.015c.965.015,1.366-.307,1.356-1.309Q42.568,109.346,42.619,103.989ZM23.677,97.983c.469.8,1.3.351,1.97.465a6.047,6.047,0,0,0,.732,0c1.421.4,2.541-.45,3.667-1.623,3.067-3.2,6.235-6.3,9.363-9.439.882-.887,1.768-1.767,2.642-2.661a2.889,2.889,0,0,0,.417-3c-.233-.828-1.179-.405-1.815-.461s-1.286.013-1.926-.022a1.992,1.992,0,0,0-1.6.682q-6.4,6.456-12.826,12.889a3.538,3.538,0,0,0-.622,3.169Zm.014-8.806,7.89-7.913c-2.45,0-4.82-.008-7.188,0-.737,0-.807.545-.807,1.115,0,1.553-.018,3.108,0,4.661A6.959,6.959,0,0,0,23.691,89.177ZM92.783,67.631c-.274-.107-.466.187-.678.333a7.674,7.674,0,0,1-9.763-.282,1.036,1.036,0,0,0-1.555,0,7.61,7.61,0,0,1-9.919.107c-.767-.613-1.192-.5-1.916.054a7.594,7.594,0,0,1-8.126.973c-.914-.394-1.6-1.445-2.483-1.49-.949-.048-1.6,1.2-2.6,1.467-1.056.286-1.238.967-1.235,1.965q.043,17.9.02,35.8c0,.305,0,.608.014.913.015.386.2.7.589.715,1.224.035,2.4.221,3.482-.822,4.156-4,8.407-7.891,12.622-11.823.36-.337.706-.692,1.085-1.006a2.061,2.061,0,1,1,2.857,2.97c-.357.391-.754.747-1.142,1.11q-4.573,4.269-9.147,8.543c-.28.264-.716.444-.716.944a2.069,2.069,0,0,0,1.127.121q13.063.009,26.127,0c1.578,0,1.6-.015,1.6-1.591q.009-12.429,0-24.857a1.694,1.694,0,0,0-.242-1.23c-.364.343-.669.619-.963.908Q86.626,86.57,81.434,91.678a5.794,5.794,0,0,1-1.134.935,1.86,1.86,0,0,1-2.394-.343,1.9,1.9,0,0,1-.337-2.405,5.25,5.25,0,0,1,.943-1.127c3.508-3.466,7.039-6.908,10.533-10.39,1.313-1.309,3.106-2.353,3.776-4.031.685-1.713.14-3.755.206-5.65a1.256,1.256,0,0,0,0-.228C92.984,68.155,93.142,67.771,92.783,67.631Zm19.725,55.641c0-2.58-.474-3.061-3.032-3.061q-50.78,0-101.557,0c-3.664,0-3.825.17-3.821,3.865,0,1.692.008,1.7,1.727,1.7H58.307q25.845,0,51.688,0C112.74,125.778,112.508,126.03,112.508,123.272ZM76.724,78.863q-7.438,7.183-14.885,14.35a2,2,0,0,1-3.032.108,2.117,2.117,0,0,1,.2-3.132q7.423-7.2,14.887-14.346a2.035,2.035,0,0,1,2.4-.484,1.961,1.961,0,0,1,1.177,2.019A2.059,2.059,0,0,1,76.724,78.863ZM30.941,110.436c-.263.014-.53,0-.793,0-1.912.007-2.961-.713-2.988-2.039-.028-1.386,1.056-2.173,3-2.175a8.208,8.208,0,0,1,.907.029,2.093,2.093,0,1,1-.129,4.183Z" transform="translate(-0.135 -0.469)"  stroke-width="1" fill-rule="evenodd"/>
    </g>
  </g>
</svg>
