<svg xmlns="http://www.w3.org/2000/svg" width="109" height="130.389" viewBox="0 0 109 130.389">
  <g id="cinema-1" transform="translate(-0.341 -0.864)">
    <g id="shape-4" transform="translate(0.841 1.364)">
      <path id="Shape" d="M108.3,129.733a2.386,2.386,0,0,0-.421,0H.841v-8.053c1.146-2.711,3.283-3.966,6.405-3.806.876.044,1.756.009,2.634.008,1.639,0,1.642,0,1.642-1.515q0-19.777.012-39.552a3.529,3.529,0,0,0-.685-2.3,5.706,5.706,0,0,1-1.042-2.748,26.724,26.724,0,0,1-.078-5.388,5.076,5.076,0,0,1,3.439-4.565c2.831-1.156,5.673-2.283,8.519-3.406a12.029,12.029,0,0,1,4.615-.843c2.6.032,5.2-.005,7.8.014h5.852c-.008-.634-.012-1.267,0-1.9.011-.539-.133-.767-.755-.723-.7.048-1.4.018-2.106.005-.737-.012-1.1-.347-1.114-1.034s-.032-1.386,0-2.077c.025-.473-.175-.616-.651-.583-.39.028-.784.006-1.176,0a2.058,2.058,0,0,1-2.15-2.009c0-.4-.013-.809,0-1.212.013-.349-.146-.483-.515-.476q-1.146.02-2.295,0c-.8-.013-1.154-.354-1.161-1.112-.007-.674-.023-1.348,0-2.02.019-.425-.139-.578-.6-.569-1.24.023-2.48-.007-3.719.014-.476.008-.663-.131-.65-.593.041-1.588-.187-1.319,1.387-1.34q1.518-.022,3.038,0c.4.006.559-.127.549-.5-.019-.712-.016-1.425,0-2.136s.37-1.045,1.153-1.058q1.148-.019,2.294,0c.365.006.527-.115.522-.468-.013-.9-.011-1.809,0-2.714,0-.326-.149-.442-.486-.438-.744.01-1.488.006-2.232,0-.9-.006-1.241-.316-1.25-1.143-.008-.673-.021-1.347,0-2.019.015-.4-.145-.54-.575-.535-1.26.018-2.522-.008-3.782.009-.449.006-.626-.133-.617-.564.035-1.65-.183-1.338,1.418-1.369q1.487-.029,2.975,0c.427.01.594-.123.579-.529-.025-.712-.015-1.424,0-2.136.012-.685.375-1.021,1.114-1.032s1.488-.022,2.231,0c.438.013.642-.094.627-.546-.031-.845-.026-1.693,0-2.54.01-.4-.132-.554-.57-.54-.742.023-1.488.013-2.231,0-.812-.011-1.159-.339-1.169-1.1-.009-.635-.036-1.271.006-1.9.034-.517-.124-.72-.718-.7-1.176.04-2.356-.005-3.534.021-.517.012-.744-.112-.727-.642.051-1.513-.181-1.277,1.378-1.294.972-.011,1.944-.03,2.914.008.564.023.718-.174.689-.668-.038-.653-.017-1.308-.007-1.963.013-.725.368-1.061,1.14-1.073s1.53-.017,2.294,0c.407.01.558-.138.536-.51S32,11.109,32,10.725A2.09,2.09,0,0,1,34.191,8.68c.569-.014,1.283.244,1.665-.134.351-.347.086-.995.111-1.509.018-.365-.006-.733.013-1.1A.943.943,0,0,1,37.005,5c.722-.021,1.448-.038,2.17,0,.581.033.8-.125.781-.7-.047-1.095,0-2.194-.023-3.29-.01-.457.124-.66.658-.648,1.654.046,1.4-.189,1.421,1.311.01.885.036,1.773-.01,2.655-.03.555.194.7.75.67.7-.038,1.4-.015,2.107,0,.742.012,1.1.344,1.119,1.03.016.712.022,1.424,0,2.136-.013.408.156.539.581.529.908-.021,1.82-.026,2.728,0,.484.014.6-.176.584-.584-.025-.692-.013-1.386,0-2.079S50.241,5.008,50.975,5c.765-.011,1.531-.022,2.294,0,.438.012.575-.143.57-.54-.019-1.174.008-2.348-.011-3.521-.008-.424.154-.578.611-.57C56.19.4,55.874.191,55.9,1.692c.016.925.021,1.848,0,2.771-.009.4.143.55.574.536.744-.023,1.488-.013,2.231,0,.811.01,1.155.339,1.164,1.106.009.692.017,1.385,0,2.077-.01.368.124.522.535.514.95-.019,1.9-.015,2.852,0,.38,0,.508-.148.5-.486q-.018-1.068,0-2.136c.013-.73.363-1.061,1.136-1.074s1.531-.017,2.295,0c.4.01.544-.141.54-.511-.015-1.174.012-2.349-.013-3.522-.01-.454.161-.609.646-.6,1.7.037,1.41-.176,1.432,1.3.013.943.016,1.886,0,2.828-.008.379.147.512.546.5.743-.019,1.488-.009,2.231,0,.816.007,1.181.333,1.194,1.082q.02,1.068,0,2.136c-.006.344.139.493.512.48.434-.014.867-.005,1.3,0a2.059,2.059,0,0,1,2.159,2c0,.365.027.733,0,1.1-.037.444.12.629.626.606.722-.034,1.447-.015,2.17-.006.813.011,1.163.337,1.173,1.1.01.635.045,1.273-.008,1.9-.047.579.2.713.779.7,1.382-.023,2.766.015,4.149.029v1.848c-1.341.013-2.684.03-4.024.04-.893.005-.893,0-.894.8,0,.6.008,1.193,0,1.789-.01.756-.364,1.09-1.172,1.1-.744.01-1.488.02-2.23,0-.438-.014-.58.145-.57.541q.032,1.268,0,2.538c-.01.391.122.558.564.544.763-.024,1.528-.013,2.293,0,.727.01,1.1.353,1.115,1.036s.035,1.349-.008,2.019c-.032.522.189.654.718.648,1.4-.015,2.807.018,4.21.031V30.9c-1.4.013-2.807.047-4.21.032-.527-.006-.749.123-.716.646.042.671.021,1.346.007,2.018s-.39,1.026-1.115,1.038c-.765.013-1.53.015-2.293,0-.383-.007-.57.1-.562.491.019.883.015,1.769,0,2.652-.006.348.136.484.511.478q1.176-.022,2.353,0c.734.013,1.09.353,1.106,1.042.012.6,0,1.193,0,1.788,0,.861,0,.853.894.861,1.342.008,2.684.027,4.024.041v1.848c-1.3.013-2.6.033-3.9.039-1.021,0-1.02,0-1.017.919,0,.558.007,1.117,0,1.674-.011.757-.364,1.091-1.172,1.1-.743.009-1.488.02-2.23,0-.437-.013-.594.144-.569.541s.011.769,0,1.154a2.064,2.064,0,0,1-2.155,2.007c-.413.005-.828.02-1.239,0-.427-.024-.594.123-.581.529.025.711.017,1.423,0,2.134-.013.68-.383,1.018-1.118,1.033-.6.013-1.2,0-1.8.005-1.164,0-1.04-.1-1.048,1,0,.538-.013,1.075-.02,1.613h5.9c2.633-.032,5.269.005,7.9-.014a10.278,10.278,0,0,1,3.811.635c3.114,1.2,6.224,2.416,9.3,3.7A4.847,4.847,0,0,1,99.865,65.9a24.348,24.348,0,0,1-.011,5.871A5.711,5.711,0,0,1,98.761,74.6a3.259,3.259,0,0,0-.625,2.117q.023,11.041.009,22.083v17.764c0,1.284.03,1.306,1.432,1.311.949,0,1.9.043,2.845-.005,3.128-.163,5.257,1.1,6.4,3.8,0,2.521-.013,5.042.015,7.562,0,.423-.087.579-.542.5ZM30.7,14.308c-.467-.005-.608.155-.6.575.02,1.229-.011,2.46.009,3.69.022,1.364-.295,1.184,1.392,1.205.379,0,.511-.143.5-.484-.013-.749,0-1.5-.006-2.25,0-.519.009-1.038,0-1.557-.026-1.287.283-1.161-1.3-1.179Zm-.021,25.87c-.426-.009-.593.128-.58.532.022.749.006,1.5.006,2.251h0c0,.518-.008,1.038,0,1.557.021,1.233-.266,1.114,1.285,1.131.454.005.62-.13.613-.561-.022-1.231.008-2.461-.01-3.693-.019-1.382.25-1.186-1.318-1.217ZM32,28.444c-.018-1.351.269-1.166-1.34-1.2-.447-.009-.572.162-.56.548.022.712.006,1.424.006,2.136,0,.539-.008,1.078,0,1.617.021,1.317-.217,1.129,1.248,1.176.533.017.667-.175.657-.639C31.987,30.869,32.017,29.656,32,28.444ZM79.033,19.78c.467.005.608-.154.6-.574-.021-1.23.01-2.461-.009-3.691-.023-1.365.295-1.185-1.393-1.205-.379,0-.511.144-.5.484.015.75,0,1.5.007,2.251,0,.519-.009,1.038,0,1.557.027,1.286-.288,1.16,1.3,1.178Zm-1.3,23.075c0,.539,0,1.077,0,1.617.009,1.371-.182,1.134,1.3,1.176.467.013.608-.146.6-.569-.023-1.23.007-2.462-.01-3.693-.017-1.349.283-1.19-1.4-1.208-.381,0-.507.146-.5.484.016.731.006,1.462.008,2.193Zm1.4-10.143c.381,0,.506-.144.5-.484-.016-.749,0-1.5-.007-2.25,0-.52,0-1.04,0-1.559-.009-1.371.181-1.135-1.3-1.177-.469-.014-.609.145-.6.569.022,1.231-.006,2.462.01,3.693.017,1.349-.285,1.191,1.4,1.208ZM38.618,53.038c1.322-.015,2.643.01,3.965-.006,1.5-.019,1.3.254,1.333-1.267.008-.38-.151-.51-.547-.5-.784.019-1.57.005-2.354.005-.559,0-1.116-.008-1.673,0-1.461.022-1.273-.228-1.3,1.238-.008.408.156.536.58.529Zm25.141-1.3c.008-.349-.14-.48-.512-.475-.95.014-1.9.019-2.85,0-.419-.007-.534.165-.525.522.017.712.015,1.424,0,2.135-.013.676-.391,1.028-1.116,1.04s-1.447.033-2.166-.006c-.562-.031-.7.174-.695.667.009.652,0,1.3-.006,1.956l11.854,0c-.008-.6-.017-1.191-.021-1.785-.007-.835,0-.834-.924-.833-.619,0-1.239.006-1.858,0-.819-.009-1.172-.333-1.183-1.088-.01-.711-.013-1.424,0-2.134Zm-7.2,1.294c1.408-.017,1.216.192,1.252-1.169.011-.447-.142-.613-.637-.6-1.321.025-2.643-.005-3.965.012-1.455.019-1.24-.252-1.275,1.255-.009.369.125.522.534.512.784-.02,1.57-.005,2.355-.005C55.4,53.035,55.978,53.041,56.556,53.034Zm-2.715,2.531c0-.44-.131-.629-.632-.608-.721.031-1.446.017-2.169.006-.811-.012-1.168-.349-1.176-1.1-.008-.691-.022-1.385,0-2.077.016-.413-.164-.535-.584-.525-.908.02-1.819.021-2.726,0-.426-.01-.6.123-.582.529.026.712.018,1.424,0,2.135-.013.68-.383,1.02-1.118,1.033-.64.013-1.28,0-1.921,0-.925,0-.92,0-.927.832,0,.594-.012,1.189-.02,1.783H53.859c-.009-.672-.023-1.344-.018-2.015ZM43.349,6.919c-1.342.018-2.685-.007-4.027.006-1.439.013-1.247-.208-1.285,1.2-.011.421.132.588.6.572.763-.029,1.527-.007,2.291-.007.558,0,1.116.007,1.673,0,1.475-.021,1.285.22,1.315-1.228C43.925,7.063,43.786,6.912,43.349,6.919Zm13.845,0c-1.322.022-2.645,0-3.967.012-1.456.014-1.277-.269-1.293,1.294,0,.351.144.478.514.472.806-.014,1.611,0,2.418,0v0c.558,0,1.116,0,1.674,0,1.422-.012,1.239.208,1.267-1.209C57.814,7.042,57.65,6.907,57.194,6.915Zm13.944,0c-.785.017-1.57.005-2.354.005h-.867c-.289,0-.579,0-.868,0-1.371.017-1.188-.17-1.236,1.134-.019.528.2.651.72.64,1.279-.029,2.56.006,3.841-.01,1.483-.02,1.293.258,1.322-1.277.008-.389-.171-.5-.558-.49Zm3.774,42.432c.61,0,.759-.172.756-.72-.019-6.2-.012-12.394-.011-18.591,0-6.236-.008-12.473.012-18.708,0-.546-.144-.724-.754-.723q-19.968.022-39.933.011c-.9,0-.906,0-.906.858q0,18.591-.011,37.185c0,.523.145.69.727.69q20.06-.023,40.12,0Zm-4.475,3.684c1.428-.022,1.211.205,1.263-1.159.018-.5-.184-.623-.682-.613-1.3.025-2.6-.005-3.9.011-1.454.019-1.273-.28-1.29,1.3,0,.355.163.473.524.466.8-.012,1.611,0,2.417,0C69.323,53.035,69.881,53.042,70.438,53.033Zm23.9,11.786c-2.249-.842-4.489-1.708-6.685-2.662a12.658,12.658,0,0,0-5.2-1c-9.206.027-18.412.012-27.62.013q-13.913,0-27.83,0a8.842,8.842,0,0,0-3.228.339c-3.014,1.168-6.016,2.369-9.017,3.572a1.631,1.631,0,0,0-1.168,1.5c-.021,1.538-.084,3.08.02,4.612a3.475,3.475,0,0,0,3.605,3.073,3.263,3.263,0,0,0,3.246-3.232c.031-.555.017-1.114.09-1.664a1.894,1.894,0,0,1,3.782.193,9.032,9.032,0,0,0,.165,2.244,3.5,3.5,0,0,0,6.671.031,9.373,9.373,0,0,0,.183-2.34A1.828,1.828,0,0,1,33.1,67.625a1.859,1.859,0,0,1,2.024,1.716c.087.648.068,1.306.125,1.959a3.262,3.262,0,0,0,3.4,2.975,3.357,3.357,0,0,0,3.452-3.069c.036-.554-.006-1.114.025-1.669a1.921,1.921,0,0,1,3.838-.136c.074.583.035,1.176.064,1.765a3.437,3.437,0,0,0,6.844-.031c.029-.588-.011-1.182.051-1.766a1.925,1.925,0,0,1,3.834,0c.067.616.018,1.243.058,1.864a3.441,3.441,0,0,0,6.832.024c.041-.653,0-1.315.089-1.961a1.915,1.915,0,0,1,3.812.142c.044.62-.015,1.247.039,1.865a3.354,3.354,0,0,0,3.45,2.966A3.264,3.264,0,0,0,74.426,71.3c.065-.749.053-1.509.18-2.247a1.885,1.885,0,0,1,3.69.164c.058.552.011,1.113.04,1.668a3.5,3.5,0,0,0,6.993-.041c.026-.556-.021-1.117.041-1.668a1.791,1.791,0,0,1,1.755-1.548,1.823,1.823,0,0,1,1.923,1.366,12.644,12.644,0,0,1,.155,1.953,3.245,3.245,0,0,0,.714,2.11A3.464,3.464,0,0,0,93.5,74.131,3.4,3.4,0,0,0,96.083,71c.046-1.242-.044-2.49.035-3.729a2.267,2.267,0,0,0-1.781-2.449ZM18.7,88.472c0-2.732,1.475-4.136,4.391-4.143q8.279-.022,16.557,0c3.09.008,4.5,1.346,4.5,4.226q.005,13.945,0,27.889c0,1.427,0,1.434,1.515,1.434q11.756,0,23.516,0h23.2c1.877,0,1.876,0,1.876-1.709l0-36.53c0-1.658,0-1.657-1.785-1.737a.87.87,0,0,1-.209-.017c-1.1-.315-1.311.188-1.3,1.1.03,4.91.013,9.821.013,14.73,0,5.727.01,11.456-.009,17.184-.007,2.29-1.283,3.584-3.72,3.849a12.844,12.844,0,0,1-1.368.055q-16.662,0-33.323,0a13.827,13.827,0,0,1-1.993-.142,3.437,3.437,0,0,1-2.954-2.825,12.61,12.61,0,0,1-.123-1.858c-.008-10.214-.026-20.426.019-30.639,0-1.157-.216-1.96-1.512-2.308a2.624,2.624,0,0,1-1.055-.636c-.621-.591-1.095-.507-1.779,0a7.515,7.515,0,0,1-9.13-.068,1.055,1.055,0,0,0-1.524-.039,7.491,7.491,0,0,1-9.3.018,1.043,1.043,0,0,0-1.527.017A7.374,7.374,0,0,1,16.912,77.9c-1.493.011-1.5-.022-1.5,1.428v37.021c0,.3.015.588.032.883.012.2.08.434.282.5a4.586,4.586,0,0,0,2.585.036c.63-.174.383-.847.383-1.308q.018-13.994.011-27.987Zm21.457,7.493-7.32,6.791c2.243,0,4.441.006,6.638,0,.667,0,.779-.446.78-.946,0-1.142.025-2.286,0-3.429a8.621,8.621,0,0,0-.093-2.413Zm.114,11.573c.008-.852-.355-1.143-1.254-1.139q-7.59.037-15.178,0c-.9-.005-1.257.278-1.247,1.136q.049,4.611,0,9.225c-.01.863.345,1.142,1.247,1.129,2.528-.038,5.059-.013,7.588-.011s5.059-.024,7.588.013c.895.013,1.268-.265,1.259-1.127q-.049-4.614,0-9.227Zm-17.581-5.171c.435.691,1.207.3,1.828.4a6.173,6.173,0,0,0,.679,0c1.319.342,2.36-.387,3.4-1.4,2.847-2.754,5.787-5.425,8.69-8.128.819-.763,1.642-1.522,2.453-2.292a2.345,2.345,0,0,0,.387-2.587c-.216-.711-1.095-.348-1.685-.4s-1.192.012-1.789-.018a1.916,1.916,0,0,0-1.486.586q-5.944,5.56-11.905,11.1A2.871,2.871,0,0,0,22.693,102.366Zm.012-7.583,7.324-6.815c-2.275,0-4.473-.006-6.671,0-.685,0-.75.467-.75.959,0,1.338-.017,2.677,0,4.014a5.56,5.56,0,0,0,.094,1.838ZM86.836,76.229c-.254-.093-.431.161-.628.286a7.555,7.555,0,0,1-9.063-.243,1.011,1.011,0,0,0-1.442,0,7.488,7.488,0,0,1-9.207.092,1.238,1.238,0,0,0-1.779.045,7.493,7.493,0,0,1-7.543.84c-.849-.341-1.485-1.246-2.3-1.284-.88-.042-1.484,1.029-2.412,1.263-.979.247-1.149.833-1.145,1.692q.04,15.417.017,30.831c0,.261,0,.523.013.785a.562.562,0,0,0,.549.615c1.134.031,2.224.191,3.23-.706,3.858-3.441,7.8-6.8,11.717-10.184.334-.288.655-.594,1.007-.865a1.974,1.974,0,0,1,2.74.012,1.669,1.669,0,0,1-.088,2.546c-.332.336-.7.643-1.06.956q-4.247,3.678-8.49,7.356c-.26.227-.666.383-.665.813a2.05,2.05,0,0,0,1.045.1q12.127.008,24.251,0c1.465,0,1.483-.013,1.484-1.37q.008-10.7,0-21.4a1.36,1.36,0,0,0-.223-1.059c-.339.3-.621.533-.894.782q-4.818,4.4-9.64,8.795a5.243,5.243,0,0,1-1.052.806,1.824,1.824,0,0,1-2.221-.294,1.549,1.549,0,0,1-.313-2.072,4.588,4.588,0,0,1,.875-.97c3.257-2.985,6.535-5.949,9.777-8.948,1.217-1.127,2.881-2.027,3.5-3.471.635-1.475.13-3.232.191-4.864a.966.966,0,0,0,0-.2c-.039-.245.109-.576-.226-.7Zm18.308,47.914c0-2.223-.439-2.637-2.812-2.637q-47.134,0-94.265,0c-3.4,0-3.551.147-3.546,3.329,0,1.458.006,1.464,1.6,1.464h96.691C105.36,126.3,105.145,126.518,105.145,124.143ZM71.932,85.9q-6.9,6.185-13.817,12.358a1.947,1.947,0,0,1-2.812.093,1.735,1.735,0,0,1,.187-2.7q6.89-6.2,13.819-12.355a1.994,1.994,0,0,1,2.224-.416,1.681,1.681,0,0,1,1.093,1.741A1.735,1.735,0,0,1,71.932,85.9Zm-42.5,27.188c-.246.012-.492,0-.739,0-1.773.005-2.747-.614-2.772-1.756-.025-1.194.98-1.871,2.788-1.872a8.185,8.185,0,0,1,.842.024c1.267.132,2,.858,1.938,1.912C31.44,112.4,30.68,113.027,29.436,113.09Zm7.527-97.659a2.072,2.072,0,0,1,2.281-2.125H54.868v0c5.187,0,10.375.035,15.561-.026a2.352,2.352,0,0,1,2.369,2.2q-.069,14.4,0,28.808a2.365,2.365,0,0,1-2.559,2.384q-15.468-.073-30.937,0a2.359,2.359,0,0,1-2.366-2.205C36.985,34.79,36.963,25.111,36.963,15.431Zm2.064,28.6c0,.513.126.7.721.7,5.044-.022,10.087-.012,15.13-.014s10.087-.007,15.13.011c.546,0,.7-.145.7-.653q-.022-11.288,0-22.577c0-.539-.141-.731-.755-.73q-15.1.025-30.2,0c-.578,0-.733.162-.731.689q.023,11.288,0,22.576Zm.808-25.17c5.414-.021,10.83-.012,16.244-.012,4.649,0,9.3-.007,13.949.006.5,0,.7-.131.68-.62a20.38,20.38,0,0,1,0-2.307c.039-.578-.2-.706-.776-.7-5.022.019-10.043.01-15.065.011h-3.41c-3.906,0-7.812.008-11.717-.008-.535,0-.741.133-.713.65a17,17,0,0,1,0,2.251c-.047.609.2.736.809.734ZM50.219,32.711c1.054-.015,2.106,0,3.16,0v0c1.3,0,2.6.012,3.9-.006.452-.007.623.135.614.564-.036,1.631.191,1.354-1.417,1.365-2.291.018-4.583-.009-6.874.014-.56.005-.765-.147-.744-.684C48.917,32.5,48.682,32.732,50.219,32.711Zm-.2,3.7q4.185-.006,8.367,0c2.872,0,5.743.013,8.614-.01.6-.006.851.124.825.732-.064,1.385.151,1.205-1.29,1.207q-8.369.011-16.734,0c-.927,0-.933,0-.928-.837.007-1.219-.137-1.089,1.147-1.092Zm8.82,3.7c1.033,0,1.033,0,1.033,1.024,0,.906,0,.906-1.1.9-.972,0-.972,0-.972-1.024C57.8,40.1,57.8,40.1,58.84,40.1Zm3.871,0c1.194.014,1.124-.15,1.133.992-.022,1.038.115.937-1.192.936-1.037,0-.865.055-.883-1.222-.01-.71,0-.717.942-.706Zm4.316,0c.783-.009.783,0,.783.969s0,.96-1.039.96-1.04,0-1.032-.8C65.754,39.939,65.577,40.118,67.027,40.1Z" transform="translate(-0.841 -0.364)"/>
    </g>
  </g>
</svg>
