<svg xmlns="http://www.w3.org/2000/svg" width="48" height="50.683">
    <path fill="#D4B363" fill-rule="evenodd" d="M35.866 1.633c-.182.57-.527 1.004-.808 1.319-.735.824-1.467 1.652-2.199 2.478l-.715.808-.016 15.738c-.001.888-.173 1.407-.664 1.808l1.416.009c.591.006.925.274.928.735.004.459-.346.738-.925.738-1.957-.002-3.916.004-5.874-.014-.34-.003-.441.054-.401.42.32 2.957.615 5.916.916 8.875.046.455.103.912.118 1.368.009.284.122.385.394.351.077-.011.156-.002.234-.002.89.002 1.233.43 1.055 1.284-.058.272-.253.178-.398.179-1.694.006-3.388.004-5.081.004-.513 0-1.027-.018-1.539.007-.329.015-.464-.054-.455-.42.021-.846.154-1.025 1.015-1.049.3-.008.326-.136.302-.367-.107-1.03-.207-2.063-.312-3.094l-.524-5.144c-.071-.698-.14-1.396-.198-2.096-.018-.23-.117-.311-.352-.31-2.937.002-5.874-.001-8.811-.008-.211 0-.303.065-.325.281-.184 1.897-.375 3.795-.567 5.692-.15 1.471-.3 2.943-.461 4.413-.066.592-.079.59.531.621.612.03 1.067.884.741 1.388-.073.113-.193.078-.296.078-2.284 0-4.569-.004-6.853.001-.215 0-.289-.058-.302-.282-.051-.957.157-1.2 1.158-1.179.402.008.509-.104.546-.501.214-2.293.47-4.581.706-6.872.11-1.078.198-2.158.318-3.234.036-.331-.072-.414-.398-.412-1.974.012-3.947.006-5.92.002-.574-.001-.932-.35-.868-.828.053-.391.357-.63.832-.636.511-.005 1.023-.006 1.534-.008-.465-.433-.709-1.019-.704-1.798.021-3.765.021-7.593.021-11.294V6.275c.002-1.283.848-2.113 2.158-2.114 1.3-.002 2.599-.002 3.899-.002h1.636c.054-.822.12-1.644.246-2.46.068-.442.33-.659.792-.656.945.007 1.891-.001 2.836.006.575.004.877.285.836.85-.054.755-.141 1.507-.221 2.26l5.096.006-.292-2.269c-.048-.377.361-.838.798-.844.991-.013 1.982-.009 2.974.003.436.005.714.273.763.668.103.811.169 1.628.243 2.443l.055.001 4.806-.004.932-.807c1.003-.867 2.041-1.763 3.056-2.648.28-.245.669-.536 1.199-.627.466-.08.894.054 1.173.367.279.312.357.744.216 1.185zM20.013 5.266l-5.221-.006h-6.07c-1.299 0-2.598-.001-3.898.001-.689 0-1.039.343-1.04 1.014v4.407c0 3.703 0 7.532-.021 11.3-.004.643.191.998.689 1.236l3.636.006c2.846.006 5.692.01 8.537.013 3.797.004 7.593.005 11.389.006h1.791c.115 0 .234-.005.358-.01l.076-.003c.703-.298.769-.432.77-1.254l.015-14.492-.362.401c-.993 1.104-2.021 2.246-3.039 3.363-1.781 1.955-3.761 3.991-6.177 5.641-.046.032-.093.068-.139.102-.081.062-.174.133-.282.199.179 1.147-.316 2.29-1.341 3.015-.664.469-1.411.742-2.284.837-.475.051-.792.211-.971.49-.078.122-.316.493-.742.478-.421-.014-.622-.381-.719-.557-.973-1.779-.692-4.321.641-5.786.774-.852 1.807-1.203 2.943-1.013.202-.316.434-.598.658-.889.115-.149.218-.31.337-.453.384-.465.783-.904 1.178-1.319 1.918-2.017 4.04-3.867 6.094-5.656.411-.357.82-.715 1.229-1.073l-8.035.002zm14.656-4.101c-.199.034-.394.144-.648.366-1.018.887-2.056 1.784-3.06 2.652l-1.042.9-.331.297c-.213.191-.427.382-.641.571-.461.405-.923.807-1.385 1.21-2.034 1.772-4.138 3.604-6.02 5.583-.363.382-.728.786-1.08 1.207-.11.132-.208.277-.314.414-.183.235-.351.482-.517.731.162.081.339.185.497.357.161.176.345.394.506.659.058-.044.115-.087.173-.127 2.322-1.586 4.247-3.567 5.982-5.471 1.016-1.115 2.042-2.255 3.035-3.358l1.341-1.488.85-.961c.733-.827 1.466-1.655 2.202-2.48.313-.352.487-.628.582-.924.025-.082.014-.124.009-.13-.005-.005-.048-.023-.139-.008z"/>
</svg>
