<svg xmlns="http://www.w3.org/2000/svg" width="33.335" height="60.019">
    <path fill="#D4B363" fill-rule="evenodd" d="M23.169 26.969c-2.057 3.756-5.207 5.941-9.455 6.493-.396.052-.536.177-.533.57.014 1.705.014 3.411.004 5.116-.002.33.12.456.443.439 1.444-.074 2.891.036 4.337-.042.543-.029 1.094.007 1.638.061 1.011.1 1.837 1.056 1.913 2.199.031.473.013.95.012 1.424-.001.405-.191.706-.532.917H3.769c-.414-.247-.567-.616-.534-1.09.036-.516-.052-1.036.057-1.551.272-1.298 1.301-2.027 2.616-1.946.97.06 1.948.013 2.922.01.767-.001 1.534-.031 2.299-.003.334.012.455-.069.453-.405-.009-1.721-.007-3.441.001-5.161.002-.34-.1-.494-.473-.533-2.437-.252-4.604-1.167-6.484-2.742-2.42-2.028-3.842-4.62-4.292-7.746-.185-1.282-.124-2.574-.113-3.863.004-.486.323-.817.771-.809.531.011 1.062-.066 1.593.015.429.064.726.352.731.753.006.378-.306.718-.717.78-.779.118-.756.12-.785.914-.088 2.42.497 4.646 1.895 6.632 1.801 2.562 4.261 4.075 7.364 4.459 3.459.428 6.443-.645 8.877-3.12 1.949-1.983 2.952-4.407 2.995-7.208.004-.251.003-.504 0-.756-.005-.804-.005-.804-.812-.92-.369-.053-.682-.401-.686-.761-.002-.382.282-.732.67-.758.545-.035 1.092-.05 1.638-.035.456.011.769.299.787.751.111 2.736-.016 5.44-1.373 7.916zM5.77 41.135c-.194 0-.383.012-.559.109-.329.184-.491.685-.353 1.149.107.358.416.215.638.217 2.294.01 4.587.006 6.88.006v-.002h1.109c1.983.001 3.965.003 5.948-.001.179 0 .425.067.47-.207.111-.662-.042-1.277-.907-1.276-4.409.005-8.817.005-13.226.005zm7.265-12.173c-4.207.361-7.923-2.885-8.218-6.93-.159-2.205-.048-4.415-.067-6.622-.021-2.535-.036-5.07.009-7.605.052-2.935 1.321-5.218 3.854-6.733 3.125-1.869 7.393-1.041 9.666 1.813C19.455 4.362 20 6.043 20.012 7.908c.015 2.194.004 4.389.004 6.583h.001c0 2.253.012 4.506-.003 6.759-.03 4.406-3.441 7.408-6.979 7.712zm3.231-18.267c.398-.023.799-.006 1.198-.009 1.025-.009.937.123.954-.96.005-.352-.134-.471-.472-.463-.562.015-1.125.019-1.686-.006-.532-.025-.871-.368-.868-.825.004-.44.378-.765.908-.775.384-.008.769.003 1.154-.001 1.063-.015 1.048.113.86-.981-.341-1.988-1.454-3.429-3.222-4.375-.289-.154-.405-.081-.397.244.009.415.016.831 0 1.245-.021.544-.34.888-.799.892-.452.006-.775-.338-.799-.889-.019-.444-.004-.889-.004-1.334-.002-.768-.146-.89-.913-.822-.357.032-.532.168-.513.557.025.533.018 1.067-.002 1.6-.019.552-.338.887-.8.884-.465-.002-.77-.334-.79-.891-.016-.414-.013-.83-.004-1.244.007-.332-.115-.393-.4-.241-1.966 1.049-3.05 2.695-3.309 4.901-.038.319.08.466.416.458.562-.015 1.124-.011 1.686 0 .532.01.892.331.903.781.01.453-.331.783-.873.813-.398.022-.799.012-1.198.013-1.022.003-.943-.149-.943 1.001.001.306.12.426.422.42.562-.01 1.124-.014 1.686.006.574.02.924.354.906.824-.018.447-.377.759-.915.772-.503.011-1.006.002-1.508.003-.583.002-.589.009-.591.602v.221c.003.578.016.597.601.598 1.804.003 3.609.001 5.414 0 1.7 0 3.402-.004 5.103.002 1.002.003.992.01.944-1.009-.015-.305-.129-.423-.429-.416-.562.011-1.124.011-1.686-.002-.549-.013-.904-.328-.904-.775 0-.464.326-.786.87-.819zm2.146 5.116c.05-.412-.158-.497-.523-.495-1.834.013-3.67.006-5.505.006v.004c-1.85 0-3.699-.002-5.549.003-.181 0-.445-.057-.455.22-.015.402-.146.823.092 1.203.026.04.138.036.21.037.619.003 1.239 0 1.859.006.499.004.831.323.829.79-.002.454-.298.744-.802.762-.399.014-.798.003-1.198.007-1.147.015-.998-.189-1.019 1.057-.006.344.145.435.455.428.562-.013 1.125-.009 1.687-.001.57.009.881.292.876.778-.005.476-.326.754-.896.761-.533.008-1.066 0-1.598.004-.503.002-.561.07-.503.574.406 3.536 3.508 5.908 7.016 5.363 2.66-.412 4.809-2.746 5.015-5.435.028-.358-.074-.522-.458-.509-.591.021-1.184.017-1.776-.001-.473-.015-.768-.316-.775-.744-.007-.454.288-.767.778-.789.414-.018.829.002 1.243-.006 1.102-.019.982.175 1.001-1.041.006-.322-.108-.453-.439-.443-.577.017-1.154.011-1.731 0-.502-.008-.844-.329-.851-.776-.007-.466.305-.754.833-.768.443-.012.89.036 1.33-.047.268-.052.605.203.793-.075.164-.242.026-.58.061-.873z"/>
</svg>
