<svg xmlns="http://www.w3.org/2000/svg" width="49.323" height="49.323">
    <path fill="#D4B363" fill-rule="evenodd" d="M36.693 20.866c-1.079 7.032-6.348 12.839-13.316 14.688-1.059.281-2.139.436-3.222.584h-3.072c-.389-.049-.779-.09-1.165-.148-2.998-.447-5.733-1.533-8.17-3.312-3.345-2.441-5.605-5.64-6.783-9.579-.345-1.151-.524-2.333-.673-3.52V16.62c.061-.442.115-.883.184-1.323C1.566 8.307 6.801 2.53 13.72.665 14.825.367 15.951.202 17.083.06h3.001c.057.015.114.036.172.041 2.265.197 4.425.777 6.451 1.797 4.847 2.441 8.03 6.248 9.551 11.404.321 1.086.473 2.2.616 3.318v2.959c-.06.429-.115.858-.181 1.287zM19.237 2.392C10.712 1.96 2.774 8.624 2.62 17.903 2.482 26.21 9.122 33.675 18.371 33.84c8.477.151 16.1-6.486 16.171-15.698.066-8.411-6.741-15.453-15.305-15.75zm1.464 26.814c-4.299.916-8.912-1.004-11.402-4.596-.822-1.186-1.429-2.463-1.762-3.862-.095-.401-.081-.419.341-.419l10.716-.001h10.61c.538 0 .553.006.408.505-1.313 4.505-4.245 7.379-8.911 8.373zm.96-14.12c-1.079-1.352-1.111-3.779-.07-5.162.9-1.194 2.328-1.163 3.174.071.512.745.713 1.576.707 2.437.005.995-.218 1.894-.837 2.663-.845 1.052-2.135 1.043-2.974-.009zm-9.143-.002c-.785-.986-.92-2.139-.781-3.339.08-.688.323-1.321.757-1.873.863-1.096 2.155-1.105 3.017-.014.605.764.815 1.655.818 2.581-.006.975-.21 1.865-.817 2.63-.856 1.079-2.136 1.094-2.994.015z"/>
</svg>
