<svg xmlns="http://www.w3.org/2000/svg" width="48" height="48">
    <path fill="#D4B363" fill-rule="evenodd" d="M30.491 22.975c.43-.008.861-.007 1.291 0 .402.008.598.206.606.606.008.346.003.692.002 1.039 0 .498 0 .495.49.498.736.005 1.472.016 2.207.024v1.074c-.713.007-1.426.019-2.139.023-.56.002-.559-.002-.557.534.001.324.003.648-.002.972-.007.439-.2.633-.642.638-.409.006-.817.012-1.224-.002-.24-.007-.326.085-.312.314.014.223.006.447.002.67-.011.665-.507 1.154-1.182 1.166-.226.003-.453.011-.679-.003-.234-.013-.326.071-.318.308.014.412.009.826.001 1.239-.008.395-.211.592-.614.6-.328.007-.656.002-.985.003-.639.001-.571-.058-.576.583-.004.691-.016 1.383-.023 2.075h-1.088c-.009-.725-.02-1.451-.025-2.176-.004-.484 0-.484-.507-.483-.34 0-.679.004-1.019-.001-.449-.007-.642-.195-.649-.632-.006-.413-.008-.827.001-1.24.003-.202-.077-.278-.28-.275-.521.008-1.043.011-1.564.001-.23-.005-.292.096-.288.303.009.414.007.826 0 1.239-.007.393-.213.597-.612.604-.395.008-.793.02-1.188-.003-.308-.019-.385.101-.381.387.01.759-.01 1.517-.019 2.276H17.13c-.008-.77-.025-1.54-.019-2.31.002-.255-.072-.366-.347-.353-.396.018-.793.01-1.188.003-.445-.007-.642-.202-.646-.637-.005-.402-.013-.805.002-1.206.008-.24-.091-.311-.321-.305-.498.012-.997.012-1.495 0-.233-.006-.326.071-.319.307.014.413.01.827.001 1.24-.007.394-.21.592-.613.6-.351.007-.703.002-1.053.002-.507 0-.505 0-.508.483-.006.725-.016 1.451-.023 2.176h-1.09c-.007-.748-.029-1.496-.016-2.243.006-.314-.074-.447-.414-.421-.383.027-.771.01-1.156.003-.404-.008-.603-.202-.611-.601-.008-.402-.017-.805.002-1.206.014-.274-.095-.358-.357-.338-.213.015-.43.003-.645.001-.671-.009-1.171-.504-1.179-1.168-.002-.234-.008-.469.002-.703.006-.202-.081-.28-.284-.277-.419.008-.839.008-1.257.001-.442-.008-.634-.206-.638-.646-.004-.391-.013-.783.002-1.172.01-.248-.076-.336-.33-.331-.68.013-1.36-.004-2.04.008-.261.005-.363-.076-.357-.344.024-.923-.102-.766.761-.779.555-.008 1.11-.007 1.666.002.218.003.306-.073.301-.293-.01-.413-.009-.827-.001-1.24.008-.418.204-.607.633-.614.419-.007.839-.008 1.257 0 .2.004.29-.067.287-.272-.008-.525-.007-1.051 0-1.576.001-.19-.083-.257-.268-.254-.407.006-.816.003-1.224 0-.495-.003-.681-.183-.686-.663-.004-.391-.011-.783.003-1.173.008-.234-.079-.314-.316-.311-.691.011-1.382-.004-2.074.006-.246.003-.342-.078-.338-.328.019-.958-.1-.778.778-.795.543-.012 1.088-.01 1.631.001.234.006.326-.07.318-.307-.014-.413-.008-.827-.001-1.24.007-.398.206-.592.611-.599.408-.007.817-.013 1.224 0 .24.009.352-.054.344-.316-.018-.491-.014-.983-.002-1.474.006-.231-.072-.322-.313-.314-.407.014-.815.007-1.224.002-.445-.007-.635-.197-.641-.64-.005-.369-.019-.739.003-1.106.019-.3-.068-.418-.394-.406-.645.024-1.291-.003-1.938.012-.284.007-.408-.065-.398-.372.028-.879-.099-.742.755-.752.533-.005 1.066-.017 1.598.005.309.013.394-.101.379-.387-.022-.379-.01-.76-.004-1.14.006-.421.201-.617.625-.623.418-.007.838-.009 1.258.001.222.005.306-.081.294-.296-.012-.223-.005-.447-.004-.671.006-.68.511-1.169 1.201-1.187.312-.008.704.141.913-.078.193-.201.047-.577.061-.876.009-.211-.004-.425.007-.636.018-.337.218-.537.562-.547.397-.011.795-.022 1.189.002.32.019.443-.073.43-.407-.026-.636.001-1.274-.013-1.911-.006-.265.068-.383.361-.375.906.026.769-.11.779.761.006.514.02 1.029-.005 1.542-.017.322.106.406.411.389.383-.023.77-.01 1.155-.003.407.007.606.2.614.598.009.414.013.827-.001 1.241-.007.236.086.312.319.307.498-.012.998-.015 1.495.002.267.009.329-.102.322-.339-.015-.401-.008-.804-.001-1.207.006-.399.204-.595.607-.602.419-.007.839-.012 1.258.001.24.008.316-.083.312-.313-.011-.682.004-1.363-.006-2.045-.005-.246.085-.336.335-.33.962.018.788-.103.803.769.009.536.011 1.073-.001 1.609-.005.233.079.318.316.31.407-.013.815-.007 1.223-.001.444.006.633.198.639.642.004.402.009.806-.002 1.207-.006.213.069.303.294.298.521-.01 1.043-.008 1.563-.001.208.003.28-.085.277-.282-.008-.414-.007-.827-.001-1.24.008-.424.199-.616.624-.624.419-.008.838-.009 1.257.001.223.005.3-.083.298-.297-.01-.681.005-1.363-.008-2.045-.006-.263.088-.353.354-.347.929.021.772-.102.785.753.008.548.008 1.096-.001 1.643-.004.22.081.298.3.291.407-.011.815-.004 1.223-.001.447.003.648.193.655.628.008.414.008.827-.001 1.241-.003.199.076.286.281.279.237-.009.475-.003.714-.001.672.006 1.174.5 1.183 1.162.003.212.015.426-.001.636-.02.258.065.366.344.352.395-.02.793-.008 1.189-.003.447.006.638.196.644.637.005.368.024.739-.004 1.106-.027.335.109.414.427.408.757-.014 1.517.009 2.275.017v1.073c-.735.007-1.471.017-2.207.023-.489.003-.489.001-.489.467-.001.346.003.693-.002 1.039-.007.439-.201.633-.643.639-.408.005-.816.011-1.223-.002-.24-.008-.318.084-.312.314.012.491.011.983 0 1.474-.006.227.066.324.308.316.419-.014.839-.008 1.258-.002.399.007.603.206.611.603.009.391.02.782-.003 1.172-.018.304.103.38.393.377.77-.01 1.54.01 2.309.018v1.073c-.769.008-1.539.027-2.308.018-.29-.004-.412.072-.393.376.023.389.011.781.004 1.172-.008.391-.215.596-.612.602-.42.008-.839.01-1.257 0-.211-.005-.313.058-.308.285.01.513.008 1.027-.002 1.54-.002.202.075.281.28.277zM4.421 9.068c-.256-.002-.333.09-.329.333.011.715-.006 1.43.005 2.144.012.792-.162.688.763.7.208.003.28-.084.277-.281-.008-.436-.002-.871-.004-1.306 0-.302.005-.604 0-.904-.015-.748.155-.675-.712-.686zM4.409 24.09c-.234-.005-.325.075-.318.31.013.435.004.871.004 1.306h.001c0 .302-.004.603.001.905.012.716-.146.647.704.657.249.003.341-.076.337-.327-.013-.714.005-1.429-.005-2.143-.011-.803.137-.689-.724-.708zm.724-6.813c-.01-.784.147-.678-.734-.698-.246-.006-.315.093-.308.318.012.413.004.827.003 1.24 0 .314-.004.626.001.939.012.765-.119.656.684.683.293.011.366-.102.361-.371-.015-.703.001-1.408-.007-2.111zM23.97 31.559c.442-.008.884-.002 1.326-.002.306 0 .612.004.917-.001.784-.013.665.118.693-.673.01-.288-.101-.362-.375-.357-.713.015-1.428-.002-2.141.007-.797.011-.698-.162-.707.754-.003.206.089.275.287.272zm-7.613.001c.43-.012.861-.003 1.292-.003.317 0 .634.003.951-.001.772-.01.667.111.687-.678.007-.261-.078-.357-.349-.351-.724.014-1.45-.003-2.175.007-.797.011-.68-.147-.699.729-.006.214.069.303.293.297zm-7.595-.001c.725-.01 1.45.005 2.174-.004.822-.011.714.147.731-.736.004-.221-.082-.296-.3-.291-.43.012-.86.004-1.291.004-.306 0-.612-.005-.917 0-.802.013-.698-.132-.715.719-.005.236.086.311.318.308zm2.594-26.782c-.736.011-1.472-.004-2.207.004-.79.009-.685-.121-.705.697-.006.244.072.341.329.331.418-.016.837-.004 1.257-.004.305 0 .611.004.917-.001.809-.012.704.129.721-.713.005-.23-.072-.317-.312-.314zm7.594-.002c-.725.013-1.45 0-2.175.007-.799.008-.702-.156-.709.752-.002.203.078.277.281.273.442-.008.884-.002 1.326-.002v-.001c.306 0 .612.002.917-.001.781-.008.68.122.696-.702.004-.251-.086-.33-.336-.326zm7.647.002c-.43.01-.86.003-1.29.003h-.476c-.159 0-.317-.002-.476 0-.752.009-.651-.1-.677.657-.011.308.107.379.394.373.701-.018 1.404.003 2.107-.007.812-.011.708.151.725-.742.004-.225-.094-.289-.307-.284zm2.486 2.562c.001-.317-.079-.421-.414-.42-7.3.009-14.6.006-21.9.007-.496 0-.498.002-.498.497 0 7.198.002 14.395-.006 21.593 0 .304.08.401.4.401 7.334-.009 14.668-.01 22.003-.001.334.001.416-.099.415-.417-.011-3.6-.007-7.198-.007-10.796 0-3.621-.003-7.243.007-10.864zm1.845 4.907c.255.003.333-.09.329-.333-.011-.715.006-1.43-.005-2.144-.013-.791.161-.687-.764-.699-.207-.003-.279.084-.276.281.007.435.003.871.003 1.306 0 .301-.005.603.001.904.014.748-.157.674.712.685zm.053 7.51c.21.003.279-.084.275-.281-.008-.435-.002-.871-.003-1.307 0-.302.001-.603-.001-.905-.004-.796.1-.659-.712-.683-.257-.009-.334.084-.329.33.012.714-.004 1.429.005 2.144.009.784-.156.692.765.702zm-.77 4.616c.009.424.004.849.004 1.274 0 .312-.002.626 0 .938.006.797-.099.659.713.684.257.007.334-.085.33-.33-.013-.715.003-1.43-.006-2.145-.009-.784.155-.691-.766-.702-.209-.003-.278.085-.275.281zm-4.105 3.493c-5.656-.028-11.311-.027-16.966-.002-.69.003-1.302-.609-1.299-1.28.025-5.621.014-11.242.013-16.863 0-.747.494-1.234 1.252-1.234h8.568v.002c2.845 0 5.69.02 8.535-.015.682-.009 1.301.601 1.299 1.28-.025 5.576-.027 11.152.002 16.728.004.813-.58 1.387-1.404 1.384zm-.169-18.263c-2.754.01-5.508.006-8.263.006h-1.87c-2.142 0-4.284.006-6.426-.005-.293-.001-.406.077-.391.378.023.435.03.873-.002 1.307-.025.353.109.427.444.426 2.97-.013 5.939-.007 8.908-.007 2.55 0 5.101-.005 7.651.003.276.001.385-.076.373-.36-.02-.446-.027-.895.002-1.34.021-.335-.109-.41-.426-.408zm.011 3.218c-5.521.01-11.041.009-16.561 0-.317 0-.402.095-.401.4.008 4.37.008 8.74 0 13.11 0 .297.069.406.395.405 2.766-.013 5.532-.007 8.298-.008 2.766 0 5.532-.004 8.298.006.3.002.385-.084.384-.379-.008-4.37-.007-8.74.002-13.11 0-.313-.078-.424-.415-.424zm-1.875 10.2c-3.059.004-6.119 0-9.178 0-.508 0-.511.002-.508-.486.003-.707-.076-.632.629-.633 1.529-.003 3.059-.001 4.589-.001 1.574 0 3.15.008 4.724-.007.33-.003.467.074.452.426-.034.804.082.699-.708.701zm-5.516-2.148c-1.257.009-2.514-.006-3.77.008-.307.003-.42-.085-.408-.398.031-.85-.097-.715.746-.727.577-.009 1.155-.003 1.732-.003v.003c.714 0 1.427.006 2.14-.004.248-.004.342.079.337.327-.02.948.105.787-.777.794zm1.295 3.174c.567 0 .567 0 .567.595 0 .526 0 .526-.603.525-.534-.001-.534-.001-.533-.594 0-.526 0-.526.569-.526zm2.124 0c.654.008.616-.087.621.576-.012.602.063.543-.653.543-.57 0-.475.033-.485-.709-.005-.413.002-.416.517-.41zm2.367 0c.429-.005.43 0 .43.563 0 .557 0 .557-.571.557-.567 0-.57 0-.566-.462.009-.752-.089-.648.707-.658z"/>
</svg>
